<svg width="42" height="42" viewBox="0 0 42 42" fill="none" xmlns="http://www.w3.org/2000/svg">
<g clip-path="url(#clip0_399_1647)">
<path d="M12.3463 34.1582H8.65601C8.21928 34.1582 7.86523 34.5123 7.86523 34.9491V41.2106C7.86523 41.6474 8.21928 42.0015 8.65601 42.0015H12.3463C12.783 42.0015 13.1371 41.6474 13.1371 41.2106V34.9491C13.1371 34.5123 12.783 34.1582 12.3463 34.1582Z" fill="white"/>
<path d="M8.91861 18.3623H0.790774C0.35453 18.3623 0 18.7169 0 19.1532V22.8442C0 23.2805 0.35453 23.6351 0.790774 23.6351H7.33707C7.62833 23.6351 7.86425 23.8711 7.86425 24.1624V28.0511C7.86425 28.4874 8.21878 28.842 8.65502 28.842H12.3453C12.7815 28.842 13.1361 28.4874 13.1361 28.0511V22.5806C13.1361 20.2513 11.2474 18.3623 8.91861 18.3623Z" fill="white"/>
<path d="M33.3424 0H29.6521C29.2154 0 28.8613 0.354108 28.8613 0.790923V7.0524C28.8613 7.48921 29.2154 7.84332 29.6521 7.84332H33.3424C33.7791 7.84332 34.1332 7.48921 34.1332 7.0524V0.790923C34.1332 0.354108 33.7791 0 33.3424 0Z" fill="white"/>
<path d="M41.2066 18.3671H34.6603C34.3691 18.3671 34.1332 18.1311 34.1332 17.8398V13.9511C34.1332 13.5148 33.7786 13.1602 33.3424 13.1602H29.6521C29.2159 13.1602 28.8613 13.5148 28.8613 13.9511V19.4216C28.8613 21.7509 30.75 23.6399 33.0788 23.6399H41.2066C41.6429 23.6399 41.9974 23.2853 41.9974 22.849V19.158C41.9974 18.7217 41.6429 18.3671 41.2066 18.3671Z" fill="white"/>
<path d="M41.2073 28.8652H34.947C34.5103 28.8652 34.1562 29.2193 34.1562 29.6562V33.3471C34.1562 33.7839 34.5103 34.1381 34.947 34.1381H41.2073C41.6441 34.1381 41.9981 33.7839 41.9981 33.3471V29.6562C41.9981 29.2193 41.6441 28.8652 41.2073 28.8652Z" fill="white"/>
<path d="M28.0511 28.8647H27.8534C25.5246 28.8647 23.636 26.9758 23.636 24.6465V0.790923C23.636 0.354597 23.2814 0 22.8452 0H19.1549C18.7187 0 18.3641 0.354597 18.3641 0.790923V7.33713C18.3641 7.62845 18.1282 7.86441 17.837 7.86441H13.949C13.5127 7.86441 13.1582 8.21901 13.1582 8.65534V12.3463C13.1582 12.7826 13.5127 13.1372 13.949 13.1372H14.1467C16.4755 13.1372 18.3641 15.0262 18.3641 17.3555V41.2111C18.3641 41.6474 18.7187 42.002 19.1549 42.002H22.8452C23.2814 42.002 23.636 41.6474 23.636 41.2111V34.6648C23.636 34.3735 23.8719 34.1376 24.1631 34.1376H28.0511C28.4874 34.1376 28.8419 33.783 28.8419 33.3466V29.6557C28.8419 29.2193 28.4874 28.8647 28.0511 28.8647Z" fill="white"/>
<path d="M7.05107 7.86426H0.790774C0.354042 7.86426 0 8.21837 0 8.65518V12.3462C0 12.783 0.354042 13.1371 0.790774 13.1371H7.05107C7.4878 13.1371 7.84184 12.783 7.84184 12.3462V8.65518C7.84184 8.21837 7.4878 7.86426 7.05107 7.86426Z" fill="white"/>
</g>
<defs>
<clipPath id="clip0_399_1647">
<rect width="42" height="42" fill="white"/>
</clipPath>
</defs>
</svg>
