<svg width="233" height="36" viewBox="0 0 233 36" fill="none" xmlns="http://www.w3.org/2000/svg">
<path d="M226.256 29.6153C225.385 29.6153 224.525 29.4985 223.676 29.2649C222.847 29.0313 222.083 28.7128 221.382 28.3093C220.905 28.02 220.472 27.6914 220.083 27.3233C219.775 27.0318 219.796 26.5482 220.093 26.2466L221.441 24.8815C221.772 24.5468 222.312 24.5668 222.677 24.8641C223.05 25.1688 223.458 25.4146 223.899 25.6017C224.599 25.899 225.375 26.0476 226.224 26.0476C226.904 26.0476 227.413 25.9521 227.753 25.7609C228.114 25.5698 228.294 25.2831 228.294 24.9009C228.294 24.4762 228.103 24.147 227.721 23.9134C227.36 23.6798 226.882 23.4887 226.288 23.34C225.693 23.1701 225.067 22.9896 224.408 22.7985C223.771 22.5861 223.155 22.3207 222.561 22.0021C221.966 21.6624 221.478 21.2058 221.095 20.6324C220.734 20.0378 220.554 19.2733 220.554 18.3389C220.554 17.362 220.787 16.5126 221.255 15.7906C221.743 15.0685 222.433 14.5058 223.325 14.1023C224.217 13.6988 225.268 13.4971 226.479 13.4971C227.753 13.4971 228.9 13.7201 229.919 14.166C230.737 14.5165 231.443 15.0046 232.038 15.6305C232.319 15.9262 232.284 16.3881 231.996 16.6765L230.621 18.0511C230.279 18.3926 229.723 18.3554 229.353 18.0448C229.053 17.7928 228.732 17.5936 228.39 17.447C227.817 17.1922 227.19 17.0647 226.511 17.0647C225.895 17.0647 225.417 17.1603 225.077 17.3514C224.759 17.5426 224.599 17.808 224.599 18.1478C224.599 18.53 224.78 18.8273 225.141 19.0397C225.523 19.2521 226.012 19.4432 226.606 19.6131C227.201 19.7617 227.817 19.9422 228.454 20.1546C229.112 20.3457 229.728 20.6218 230.301 20.9828C230.896 21.3438 231.374 21.8216 231.735 22.4162C232.117 23.0109 232.308 23.7754 232.308 24.7097C232.308 26.2175 231.767 27.4174 230.684 28.3093C229.601 29.18 228.125 29.6153 226.256 29.6153Z" fill="#F7752C"/>
<path d="M211.338 29.2643C210.888 29.2643 210.523 28.8994 210.523 28.4493V8.29117C210.523 7.841 210.888 7.47607 211.338 7.47607H213.881C214.331 7.47607 214.696 7.841 214.696 8.29117V28.4493C214.696 28.8994 214.331 29.2643 213.881 29.2643H211.338ZM207.739 17.542C207.289 17.542 206.924 17.1771 206.924 16.7269V14.6939C206.924 14.2437 207.289 13.8788 207.739 13.8788H217.481C217.931 13.8788 218.296 14.2437 218.296 14.6939V16.7269C218.296 17.1771 217.931 17.542 217.481 17.542H207.739Z" fill="#F7752C"/>
<path d="M195.332 29.5832C193.93 29.5832 192.666 29.2328 191.541 28.532C190.415 27.8312 189.534 26.8756 188.897 25.6651C188.26 24.4547 187.941 23.0956 187.941 21.5878C187.941 20.0588 188.26 18.6891 188.897 17.4786C189.534 16.2682 190.415 15.3125 191.541 14.6117C192.666 13.9109 193.93 13.5605 195.332 13.5605C196.436 13.5605 197.423 13.7835 198.294 14.2295C199.165 14.6754 199.855 15.3019 200.365 16.1089C200.896 16.8946 201.182 17.7865 201.225 18.7846V24.3273C201.182 25.3466 200.896 26.2491 200.365 27.0349C199.855 27.8206 199.165 28.4471 198.294 28.9143C197.423 29.3602 196.436 29.5832 195.332 29.5832ZM196.096 25.7289C197.264 25.7289 198.209 25.3466 198.931 24.5821C199.653 23.7964 200.014 22.7876 200.014 21.556C200.014 20.749 199.844 20.0376 199.505 19.4217C199.186 18.7846 198.729 18.2962 198.135 17.9564C197.561 17.5954 196.882 17.4149 196.096 17.4149C195.332 17.4149 194.652 17.5954 194.057 17.9564C193.484 18.2962 193.027 18.7846 192.688 19.4217C192.369 20.0376 192.21 20.749 192.21 21.556C192.21 22.3842 192.369 23.1168 192.688 23.7539C193.027 24.3697 193.484 24.8582 194.057 25.2192C194.652 25.559 195.332 25.7289 196.096 25.7289ZM200.606 29.2647C200.156 29.2647 199.791 28.8997 199.791 28.4496V25.1956C199.791 25.1477 199.795 25.0999 199.804 25.0528L200.435 21.5089C200.451 21.4136 200.451 21.3161 200.434 21.2209L199.804 17.7418C199.796 17.6938 199.791 17.6452 199.791 17.5966V14.6942C199.791 14.244 200.156 13.8791 200.606 13.8791H203.117C203.567 13.8791 203.932 14.244 203.932 14.6942V28.4496C203.932 28.8997 203.567 29.2647 203.117 29.2647H200.606Z" fill="#F7752C"/>
<path d="M179.329 29.2643C178.879 29.2643 178.514 28.8994 178.514 28.4493V8.29117C178.514 7.841 178.879 7.47607 179.329 7.47607H181.871C182.322 7.47607 182.687 7.841 182.687 8.29117V28.4493C182.687 28.8994 182.322 29.2643 181.871 29.2643H179.329ZM175.729 17.542C175.279 17.542 174.914 17.1771 174.914 16.7269V14.6939C174.914 14.2437 175.279 13.8788 175.729 13.8788H185.471C185.921 13.8788 186.286 14.2437 186.286 14.6939V16.7269C186.286 17.1771 185.921 17.542 185.471 17.542H175.729Z" fill="#F7752C"/>
<path d="M164.83 29.5829C163.025 29.5829 161.475 29.275 160.179 28.6592C159.105 28.1402 158.115 27.4026 157.207 26.4462C156.915 26.139 156.937 25.6575 157.237 25.3579L158.912 23.6829C159.262 23.3331 159.838 23.3765 160.178 23.7353C160.688 24.2725 161.251 24.714 161.867 25.0597C162.738 25.5268 163.8 25.7604 165.053 25.7604C166.178 25.7604 167.07 25.5375 167.729 25.0915C168.408 24.6455 168.748 24.0297 168.748 23.244C168.748 22.5644 168.557 22.0123 168.175 21.5875C167.792 21.1628 167.283 20.8018 166.646 20.5045C166.03 20.2072 165.34 19.9417 164.575 19.7081C163.832 19.4533 163.078 19.1666 162.313 18.8481C161.57 18.5295 160.88 18.1367 160.243 17.6695C159.627 17.181 159.128 16.5652 158.746 15.8219C158.363 15.0574 158.172 14.1018 158.172 12.9551C158.172 11.5959 158.501 10.4386 159.16 9.48295C159.818 8.52732 160.721 7.79468 161.867 7.28501C163.014 6.77534 164.31 6.52051 165.754 6.52051C167.283 6.52051 168.663 6.8072 169.895 7.38057C170.87 7.8345 171.705 8.3949 172.401 9.06178C172.709 9.35695 172.688 9.84352 172.386 10.1451L170.658 11.8737C170.329 12.2024 169.795 12.1858 169.45 11.8741C168.982 11.4513 168.504 11.1215 168.015 10.8845C167.336 10.5448 166.561 10.3749 165.69 10.3749C164.692 10.3749 163.906 10.566 163.333 10.9482C162.759 11.3305 162.473 11.8826 162.473 12.6047C162.473 13.2205 162.664 13.7196 163.046 14.1018C163.428 14.4841 163.927 14.8132 164.543 15.0893C165.18 15.3654 165.87 15.6308 166.614 15.8856C167.378 16.1405 168.132 16.4272 168.875 16.7457C169.64 17.0642 170.33 17.4784 170.946 17.988C171.583 18.4977 172.093 19.156 172.475 19.963C172.857 20.7487 173.048 21.7256 173.048 22.8936C173.048 24.9747 172.316 26.6099 170.85 27.7991C169.385 28.9883 167.378 29.5829 164.83 29.5829Z" fill="#F7752C"/>
<path d="M141.087 29.2643C140.636 29.2643 140.271 28.8994 140.271 28.4493V8.29117C140.271 7.841 140.636 7.47607 141.087 7.47607H143.629C144.079 7.47607 144.444 7.841 144.444 8.29117V28.4493C144.444 28.8994 144.079 29.2643 143.629 29.2643H141.087ZM137.487 17.542C137.037 17.542 136.672 17.1771 136.672 16.7269V14.6939C136.672 14.2437 137.037 13.8788 137.487 13.8788H147.229C147.679 13.8788 148.044 14.2437 148.044 14.6939V16.7269C148.044 17.1771 147.679 17.542 147.229 17.542H137.487Z" fill="#F7752C"/>
<path d="M130.286 13.8789C129.836 13.8789 129.471 14.2438 129.471 14.694V28.4494C129.471 28.8996 129.836 29.2645 130.286 29.2645H132.86C133.311 29.2645 133.675 28.8996 133.675 28.4494V14.694C133.675 14.2438 133.311 13.8789 132.86 13.8789H130.286Z" fill="#F7752C"/>
<path d="M119.967 29.6153C119.096 29.6153 118.236 29.4985 117.387 29.2649C116.558 29.0313 115.794 28.7128 115.093 28.3093C114.616 28.02 114.183 27.6914 113.794 27.3233C113.486 27.0318 113.506 26.5482 113.804 26.2466L115.152 24.8815C115.483 24.5468 116.023 24.5668 116.388 24.8641C116.761 25.1688 117.169 25.4146 117.61 25.6017C118.31 25.899 119.085 26.0476 119.935 26.0476C120.614 26.0476 121.124 25.9521 121.464 25.7609C121.825 25.5698 122.005 25.2831 122.005 24.9009C122.005 24.4762 121.814 24.147 121.432 23.9134C121.071 23.6798 120.593 23.4887 119.999 23.34C119.404 23.1701 118.778 22.9896 118.119 22.7985C117.482 22.5861 116.866 22.3207 116.272 22.0021C115.677 21.6624 115.189 21.2058 114.806 20.6324C114.445 20.0378 114.265 19.2733 114.265 18.3389C114.265 17.362 114.498 16.5126 114.966 15.7906C115.454 15.0685 116.144 14.5058 117.036 14.1023C117.928 13.6988 118.979 13.4971 120.19 13.4971C121.464 13.4971 122.611 13.7201 123.63 14.166C124.448 14.5165 125.154 15.0046 125.749 15.6305C126.03 15.9262 125.995 16.3881 125.706 16.6765L124.332 18.0511C123.99 18.3926 123.434 18.3554 123.064 18.0448C122.764 17.7928 122.443 17.5936 122.101 17.447C121.528 17.1922 120.901 17.0647 120.222 17.0647C119.606 17.0647 119.128 17.1603 118.788 17.3514C118.47 17.5426 118.31 17.808 118.31 18.1478C118.31 18.53 118.491 18.8273 118.852 19.0397C119.234 19.2521 119.723 19.4432 120.317 19.6131C120.912 19.7617 121.528 19.9422 122.165 20.1546C122.823 20.3457 123.439 20.6218 124.012 20.9828C124.607 21.3438 125.085 21.8216 125.446 22.4162C125.828 23.0109 126.019 23.7754 126.019 24.7097C126.019 26.2175 125.478 27.4174 124.395 28.3093C123.311 29.18 121.836 29.6153 119.967 29.6153Z" fill="#F7752C"/>
<path d="M107.324 29.2642C106.874 29.2642 106.509 28.8992 106.509 28.4491V20.4406C106.509 19.5274 106.222 18.7841 105.649 18.2108C105.075 17.6374 104.332 17.3507 103.419 17.3507C102.824 17.3507 102.294 17.4781 101.826 17.733C101.359 17.9878 100.987 18.3488 100.711 18.816C100.654 18.9211 100.603 19.03 100.559 19.1427C100.336 19.707 99.6884 20.1139 99.148 19.8384C98.8759 19.6997 98.7009 19.4197 98.7195 19.1149C98.7807 18.1116 99.0306 17.2262 99.4691 16.4588C100 15.5456 100.722 14.8342 101.635 14.3246C102.57 13.8149 103.621 13.5601 104.789 13.5601C105.914 13.5601 106.923 13.8467 107.815 14.4201C108.707 14.9723 109.408 15.7049 109.917 16.6181C110.427 17.51 110.682 18.4762 110.682 19.5168V28.4491C110.682 28.8992 110.317 29.2642 109.867 29.2642H107.324ZM96.9713 29.2642C96.5212 29.2642 96.1562 28.8992 96.1562 28.4491V14.6937C96.1562 14.2435 96.5212 13.8786 96.9713 13.8786H99.5141C99.9642 13.8786 100.329 14.2435 100.329 14.6937V28.4491C100.329 28.8992 99.9642 29.2642 99.5141 29.2642H96.9713Z" fill="#F7752C"/>
<path d="M83.2261 29.5827C81.8246 29.5827 80.561 29.2323 79.4355 28.5315C78.31 27.8307 77.4287 26.8751 76.7916 25.6647C76.1545 24.4542 75.8359 23.0951 75.8359 21.5873C75.8359 20.0583 76.1545 18.6886 76.7916 17.4781C77.4287 16.2677 78.31 15.312 79.4355 14.6112C80.561 13.9105 81.8246 13.5601 83.2261 13.5601C84.3304 13.5601 85.3179 13.783 86.1886 14.229C87.0593 14.675 87.7495 15.3014 88.2591 16.1084C88.79 16.8941 89.0767 17.786 89.1192 18.7841V24.3268C89.0767 25.3461 88.79 26.2486 88.2591 27.0344C87.7495 27.8201 87.0593 28.4466 86.1886 28.9138C85.3179 29.3597 84.3304 29.5827 83.2261 29.5827ZM83.9906 25.7284C85.1586 25.7284 86.1037 25.3461 86.8257 24.5816C87.5477 23.7959 87.9087 22.7872 87.9087 21.5555C87.9087 20.7485 87.7388 20.0371 87.3991 19.4212C87.0805 18.7841 86.6239 18.2957 86.0293 17.9559C85.4559 17.5949 84.7764 17.4144 83.9906 17.4144C83.2261 17.4144 82.5466 17.5949 81.952 17.9559C81.3786 18.2957 80.922 18.7841 80.5822 19.4212C80.2637 20.0371 80.1044 20.7485 80.1044 21.5555C80.1044 22.3837 80.2637 23.1163 80.5822 23.7534C80.922 24.3693 81.3786 24.8577 81.952 25.2187C82.5466 25.5585 83.2261 25.7284 83.9906 25.7284ZM88.5008 29.2642C88.0507 29.2642 87.6857 28.8993 87.6857 28.4491V25.1951C87.6857 25.1472 87.69 25.0994 87.6984 25.0523L88.3291 21.5084C88.346 21.4131 88.3459 21.3156 88.3286 21.2204L87.6988 17.7413C87.6901 17.6934 87.6857 17.6448 87.6857 17.5961V14.6937C87.6857 14.2435 88.0507 13.8786 88.5008 13.8786H91.0117C91.4619 13.8786 91.8268 14.2435 91.8268 14.6937V28.4491C91.8268 28.8993 91.4619 29.2642 91.0117 29.2642H88.5008Z" fill="#F7752C"/>
<path d="M64.153 29.2642C63.7028 29.2642 63.3379 28.8992 63.3379 28.4491V14.6937C63.3379 14.2435 63.7028 13.8786 64.153 13.8786H66.6957C67.1459 13.8786 67.5108 14.2435 67.5108 14.6937V28.4491C67.5108 28.8992 67.1459 29.2642 66.6957 29.2642H64.153ZM67.7055 19.3006C67.5176 19.9033 66.8073 20.2901 66.282 19.9399C66.0385 19.7776 65.9025 19.4934 65.9427 19.2035C66.1737 17.5366 66.707 16.2076 67.5427 15.2165C68.4558 14.1122 69.7725 13.5601 71.4926 13.5601C72.2359 13.5601 72.9048 13.6875 73.4994 13.9423C73.8945 14.0975 74.2661 14.323 74.6143 14.6188C74.9264 14.884 74.9225 15.3519 74.6533 15.6605L73.1111 17.4284C72.7916 17.7947 72.2195 17.7863 71.7742 17.5914C71.7342 17.574 71.6934 17.5574 71.6519 17.5418C71.3333 17.4144 70.9617 17.3507 70.537 17.3507C69.645 17.3507 68.9124 17.6374 68.339 18.2108C68.0546 18.4952 67.8435 18.8585 67.7055 19.3006Z" fill="#F7752C"/>
<path d="M52.6438 29.2646C52.1937 29.2646 51.8287 28.8997 51.8287 28.4495V8.164C51.8287 7.71383 52.1937 7.34891 52.6438 7.34891H55.3777C55.8278 7.34891 56.1928 7.71384 56.1928 8.164V28.4495C56.1928 28.8997 55.8278 29.2646 55.3777 29.2646H52.6438ZM45.5085 10.7255C45.0583 10.7255 44.6934 10.3605 44.6934 9.91036V7.68619C44.6934 7.23602 45.0583 6.87109 45.5085 6.87109H62.5131C62.9632 6.87109 63.3281 7.23602 63.3281 7.68619V9.91036C63.3281 10.3605 62.9632 10.7255 62.5131 10.7255H45.5085Z" fill="#F7752C"/>
<rect x="129.469" y="7.46777" width="4.19149" height="3.51543" rx="0.815094" fill="#F7752C"/>
<g clip-path="url(#clip0_444_341)">
<path d="M10.5813 29.2773H7.41807C7.04371 29.2773 6.74023 29.5809 6.74023 29.9552V35.322C6.74023 35.6964 7.04371 35.9999 7.41807 35.9999H10.5813C10.9557 35.9999 11.2592 35.6964 11.2592 35.322V29.9552C11.2592 29.5809 10.9557 29.2773 10.5813 29.2773Z" fill="#F7752C"/>
<path d="M7.64489 15.7388H0.677838C0.303898 15.7388 0 16.0427 0 16.4167V19.5802C0 19.9542 0.303898 20.2581 0.677838 20.2581H6.28921C6.53888 20.2581 6.7411 20.4604 6.7411 20.7101V24.0431C6.7411 24.417 7.045 24.721 7.41894 24.721H10.5822C10.9561 24.721 11.26 24.417 11.26 24.0431V19.3542C11.26 17.3578 9.64112 15.7388 7.64489 15.7388Z" fill="#F7752C"/>
<path d="M28.5813 0H25.4181C25.0437 0 24.7402 0.303507 24.7402 0.677902V6.04463C24.7402 6.41902 25.0437 6.72253 25.4181 6.72253H28.5813C28.9557 6.72253 29.2592 6.41902 29.2592 6.04463V0.677902C29.2592 0.303507 28.9557 0 28.5813 0Z" fill="#F7752C"/>
<path d="M35.3224 15.7422H29.711C29.4614 15.7422 29.2592 15.5399 29.2592 15.2902V11.9572C29.2592 11.5832 28.9553 11.2793 28.5813 11.2793H25.4181C25.0441 11.2793 24.7402 11.5832 24.7402 11.9572V16.646C24.7402 18.6424 26.3591 20.2615 28.3554 20.2615H35.3224C35.6964 20.2615 36.0003 19.9576 36.0003 19.5836V16.4201C36.0003 16.0461 35.6964 15.7422 35.3224 15.7422Z" fill="#F7752C"/>
<path d="M35.3234 24.7402H29.9571C29.5828 24.7402 29.2793 25.0437 29.2793 25.4181V28.5817C29.2793 28.9561 29.5828 29.2596 29.9571 29.2596H35.3234C35.6977 29.2596 36.0012 28.9561 36.0012 28.5817V25.4181C36.0012 25.0437 35.6977 24.7402 35.3234 24.7402Z" fill="#F7752C"/>
<path d="M24.0433 24.74H23.8738C21.8776 24.74 20.2587 23.121 20.2587 21.1246V0.677902C20.2587 0.303926 19.9548 0 19.5809 0H16.4176C16.0437 0 15.7398 0.303926 15.7398 0.677902V6.28867C15.7398 6.53837 15.5376 6.74061 15.2879 6.74061H11.9552C11.5812 6.74061 11.2773 7.04453 11.2773 7.41851V10.5821C11.2773 10.956 11.5812 11.26 11.9552 11.26H12.1246C14.1209 11.26 15.7398 12.879 15.7398 14.8754V35.3221C15.7398 35.6961 16.0437 36 16.4176 36H19.5809C19.9548 36 20.2587 35.6961 20.2587 35.3221V29.7113C20.2587 29.4616 20.4609 29.2594 20.7106 29.2594H24.0433C24.4172 29.2594 24.7211 28.9555 24.7211 28.5815V25.4179C24.7211 25.044 24.4172 24.74 24.0433 24.74Z" fill="#F7752C"/>
<path d="M6.04406 6.74072H0.677838C0.303479 6.74072 0 7.04423 0 7.41863V10.5822C0 10.9566 0.303479 11.2601 0.677838 11.2601H6.04406C6.41842 11.2601 6.7219 10.9566 6.7219 10.5822V7.41863C6.7219 7.04423 6.41842 6.74072 6.04406 6.74072Z" fill="#F7752C"/>
</g>
<defs>
<clipPath id="clip0_444_341">
<rect width="36.0017" height="35.9983" fill="white"/>
</clipPath>
</defs>
</svg>
