<svg width="32" height="24" viewBox="0 0 32 24" fill="none" xmlns="http://www.w3.org/2000/svg">
<path d="M6.88952 23.7793C5.13692 23.7793 3.55052 23.1381 2.13031 21.8556C0.710104 20.5732 0 18.5579 0 15.8098C0 13.4587 0.392823 11.2602 1.17847 9.21441C1.99433 7.16861 3.08215 5.35182 4.44193 3.76403C5.63675 2.37293 6.94322 1.19617 8.36132 0.23375C8.79135 -0.0580973 9.34715 -0.0733123 9.80774 0.167425C10.721 0.64478 10.9059 1.92017 10.2635 2.72597C10.0966 2.93532 9.92378 3.1592 9.74504 3.39762C8.98961 4.37471 8.29462 5.53502 7.66006 6.87853C7.32164 7.63086 7.06376 8.4167 6.88643 9.23606C6.65164 10.3208 7.53747 11.241 8.59618 11.5742C9.53744 11.8704 10.3736 12.351 11.1048 13.0159C12.3437 14.1152 12.9632 15.535 12.9632 17.2755C12.9632 19.2907 12.3588 20.8785 11.1501 22.0388C9.94145 23.1991 8.52125 23.7793 6.88952 23.7793ZM25.8357 23.7793C24.1133 23.7793 22.542 23.1381 21.1218 21.8556C19.7318 20.5732 19.0368 18.5579 19.0368 15.8098C19.0368 13.4587 19.4297 11.2602 20.2153 9.21441C21.0312 7.16861 22.119 5.35182 23.4788 3.76403C24.6439 2.3774 25.9199 1.20373 27.3068 0.243031C27.7364 -0.0545293 28.2958 -0.0720209 28.7589 0.170042C29.6698 0.64613 29.8541 1.91804 29.2132 2.72156C29.0452 2.93218 28.8712 3.15753 28.6912 3.39762C27.9358 4.37471 27.2559 5.53502 26.6516 6.87853C26.3298 7.63154 26.0839 8.41811 25.914 9.23825C25.6892 10.3237 26.5728 11.2437 27.6263 11.5883C28.5354 11.8856 29.3587 12.3615 30.0963 13.0159C31.3654 14.1152 32 15.535 32 17.2755C32 19.2907 31.3805 20.8785 30.1416 22.0388C28.9027 23.1991 27.4674 23.7793 25.8357 23.7793Z" fill="#F7752C"/>
</svg>
