<svg width="44" height="44" viewBox="0 0 44 44" fill="none" xmlns="http://www.w3.org/2000/svg">
<path d="M36.1064 21.7093H36.1029C36.0602 20.8378 35.1352 20.0231 33.5379 19.5428C30.1192 18.5147 26.3269 17.9135 22.001 17.8779C17.6786 17.9135 13.8863 18.5147 10.464 19.5428C8.86672 20.0231 7.94888 20.8378 7.90264 21.7093H7.89553V39.5253C7.85641 40.5214 8.96988 41.5886 11.5455 42.3179C14.2065 43.0721 17.8067 43.5595 21.9974 43.5595C26.1881 43.5595 29.7883 43.0721 32.4493 42.3179C35.1495 41.553 36.2416 40.4182 36.0851 39.383H36.0993V21.7093H36.1064Z" fill="#E2A610"/>
<path d="M24.8116 37.911L23.2143 34.1471C24.125 33.706 24.7547 32.7739 24.7547 31.6925C24.7547 30.1841 23.5309 28.9639 22.0261 28.9639C20.5213 28.9639 19.2975 30.1877 19.2975 31.6925C19.2975 32.7063 19.8525 33.5922 20.6743 34.0617L19.1872 37.9358C18.9987 38.4268 19.3615 38.9497 19.8845 38.9497H24.125C24.6586 38.9497 25.018 38.4019 24.8116 37.911Z" fill="black"/>
<path d="M24.6583 37.5625H19.3256L19.1833 37.936C18.9948 38.427 19.3576 38.9499 19.8806 38.9499H24.1211C24.6583 38.9499 25.0176 38.402 24.8077 37.9111L24.6583 37.5625Z" fill="#9E740B"/>
<path d="M20.9152 33.3429C20.9792 33.1579 20.9116 32.9587 20.7551 32.8448C20.5416 32.6883 20.2535 32.4108 20.0721 31.9697C19.4104 30.3759 20.1966 29.668 20.1966 29.668C19.6416 30.166 19.293 30.8882 19.293 31.6922C19.293 32.7061 19.848 33.5919 20.6697 34.0615L20.9152 33.3429Z" fill="#9E740B"/>
<path d="M23.9434 29.75C23.9434 29.75 24.7261 31.3224 23.8296 32.3292C23.5237 32.6707 23.264 32.8521 23.0719 32.9411C22.8833 33.03 22.7979 33.2542 22.8869 33.4427L23.2177 34.14C24.1285 33.6988 24.7581 32.7667 24.7581 31.6853C24.751 30.5291 23.9434 29.75 23.9434 29.75Z" fill="#9E740B"/>
<path d="M32.9372 19.3084C29.6963 18.3656 26.0997 17.8178 22.0014 17.7822C17.9032 17.8142 14.3066 18.3656 11.0657 19.3048C7.81769 20.2476 7.49398 22.5991 12.0938 23.8584C14.6161 24.5486 18.0313 24.9932 22.0014 24.9932C25.9716 24.9932 29.3868 24.5486 31.909 23.8584C36.5089 22.6026 36.1851 20.2476 32.9372 19.3084Z" fill="#FDD835"/>
<path d="M31.6609 14.4204C31.6609 14.4204 31.5292 15.0323 29.8039 15.0323C28.0785 15.0323 28.4235 14.4204 28.4235 14.4204V12.2646C28.4235 8.39043 26.1076 4.73688 21.9987 4.73688C18.6547 4.73688 15.9296 7.63624 15.9296 11.1973V21.5354C15.9296 21.5354 15.179 22.1473 13.8129 22.1473C12.4469 22.1473 11.9844 21.5354 11.9844 21.5354V11.2009C11.9879 5.45906 16.481 0.788086 22.0023 0.788086C27.5235 0.788086 31.6609 6.04248 31.6609 12.2646V14.4204Z" fill="#A4A4A4" stroke="#A4A4A4" stroke-width="0.4895"/>
<path d="M13.8953 10.8484C13.7565 11.5492 13.5537 13.1537 13.0201 13.1145C12.5754 13.0825 12.5114 12.1789 12.5079 11.4674C12.5043 10.7559 12.7213 8.54314 13.5822 6.5047C13.906 5.73629 15.2685 3.61246 16.599 4.29553C17.4705 4.74374 16.2219 6.3055 15.6989 6.94584C15.0017 7.80318 14.1941 9.33648 13.8953 10.8484Z" fill="#D8D5D5"/>
<path d="M27.4531 21.3896C27.4531 22.2851 29.3564 22.8448 30.879 22.3971C31.5857 22.1893 32.0209 21.8053 32.0209 21.3896C32.0209 20.4941 30.1177 19.9344 28.5951 20.3822C27.8884 20.59 27.4531 20.974 27.4531 21.3896Z" fill="#9E740B"/>
</svg>
