<svg width="32" height="32" viewBox="0 0 32 32" fill="none" xmlns="http://www.w3.org/2000/svg">
<path d="M2.01079 0.829796C1.32829 1.0123 1.08829 1.6648 1.17829 2.3648C1.26579 3.0673 4.60079 29.8748 4.68829 30.4023C4.77579 30.9298 5.30329 31.1473 5.91579 31.1048C6.53079 31.0598 7.01329 30.5773 6.96829 30.0523C6.92579 29.5248 3.41579 2.1023 3.32579 1.7073C3.23579 1.3123 2.66829 0.654796 2.01079 0.829796Z" fill="#B0B0B0"/>
<path d="M5.60765 29.2852C5.42265 29.2852 5.26015 29.1476 5.23515 28.9577L1.78015 2.09765C1.75515 1.89265 1.90015 1.70515 2.10515 1.67765C2.31015 1.65265 2.49765 1.79515 2.52515 2.00265L5.98015 28.8626C6.00765 29.0676 5.86265 29.2551 5.65515 29.2826C5.64015 29.2851 5.62265 29.2852 5.60765 29.2852Z" fill="#D8D5D5"/>
<path d="M5.24414 18.4029C5.24414 18.4029 5.29664 18.9379 5.45664 19.2354C5.57164 19.4529 5.93164 19.3129 6.22164 19.0529C6.52664 18.7779 8.02664 17.7379 10.3816 17.1854C13.2741 16.5104 16.9316 15.3679 19.1941 13.8804C22.4066 11.7704 23.2166 10.1279 24.6716 8.31289C26.1391 6.47789 27.0591 5.62039 28.4666 4.85539C29.8866 4.08289 30.4566 3.96789 30.6391 3.96789C30.8216 3.96789 31.0991 3.47789 30.6691 3.26539C30.2416 3.05039 27.0891 2.83789 27.0891 2.83789L6.06914 14.7704L5.24414 18.4029Z" fill="#CC1935"/>
<path d="M3.16211 1.97967L5.24211 18.4097C5.24211 18.4097 6.31961 17.1472 8.63711 16.3297C11.3296 15.3822 14.9696 14.8297 16.8071 13.8822C18.6446 12.9347 21.1221 10.9747 22.7746 9.04717C24.4271 7.11967 25.5646 5.44467 27.3021 4.21217C28.7696 3.17217 30.6671 3.26467 30.6671 3.26467C30.6671 3.26467 29.2296 2.16217 26.5971 2.43967C23.5546 2.75717 19.6571 5.12967 18.1221 4.85717C15.1871 4.33467 14.7596 2.28467 11.8521 1.64217C7.26961 0.629675 3.16211 1.97967 3.16211 1.97967Z" fill="#FB0000"/>
<path d="M6.3753 13.2701C6.7703 13.2251 7.1703 10.8226 8.2428 8.98762C9.3153 7.15262 10.9953 5.62262 11.6378 5.19262C12.2803 4.76512 13.0453 4.21262 12.0353 3.66262C11.0253 3.11262 9.2203 2.68262 7.4153 2.68262C5.6653 2.68262 5.2128 2.86512 5.1203 3.08012C5.0278 3.29512 5.5478 8.83262 5.7328 10.1176C5.9178 11.4051 6.1003 13.3001 6.3753 13.2701Z" fill="#FF5F5F"/>
<path d="M14.9732 13.1178C15.0057 13.3103 17.9707 12.0153 19.4407 10.3328C20.6382 8.96277 21.1232 7.36527 22.2257 6.23277C23.3282 5.10027 24.4582 3.96777 24.4582 3.96777C24.4582 3.96777 21.2157 4.36527 19.4107 6.50777C17.6057 8.65027 16.9932 10.0253 16.5957 10.6678C16.1982 11.3128 14.9432 12.9328 14.9732 13.1178Z" fill="#FF5F5F"/>
</svg>
