<svg width="32" height="32" viewBox="0 0 32 32" fill="none" xmlns="http://www.w3.org/2000/svg">
<g clip-path="url(#clip0_443_4365)">
<path d="M13.4062 21.416H31.6672V31.6798H13.4062V21.416Z" fill="#757575"/>
<path d="M31.6679 31.6798H0.333984V21.416H15.1676L31.6679 31.6798Z" fill="#D8D5D5"/>
<path d="M31.6674 28.8524L19.8725 23.0097L19.7812 22.6211L31.6674 27.3761V28.8524Z" fill="#F7752C"/>
<path d="M27.4004 8.89844H29.9826" stroke="#616161" stroke-width="0.75"/>
<path d="M27.4004 11.541H29.9826" stroke="#616161" stroke-width="0.75"/>
<path d="M22.2305 7.19824H28.1357V13.1739H22.2305V7.19824Z" fill="black"/>
<path d="M22.2305 9.18799H28.1357" stroke="#F7752C" stroke-width="0.25"/>
<path d="M22.2305 11.1807H28.1357" stroke="#F7752C" stroke-width="0.25"/>
<path d="M22.5938 7.87891H24.0779V8.33536H22.5938V7.87891Z" fill="white"/>
<path d="M22.7773 12.0337H23.8963V12.4901H22.7773V12.0337Z" fill="white"/>
<path d="M26.5312 11.9868H27.6502V12.3781H26.5312V11.9868Z" fill="white"/>
<path d="M26.2793 7.91016H27.3983V8.30141H26.2793V7.91016Z" fill="white"/>
<path d="M27.0059 10.0098H27.6501V10.3567H27.0059V10.0098Z" fill="white"/>
<path d="M25.957 9.98877H26.6013V10.38H25.957V9.98877Z" fill="white"/>
<path d="M22.5938 9.95752H24.6517V10.414H22.5938V9.95752Z" fill="white"/>
<path d="M27.6377 7.19794C27.9116 7.19794 28.1333 7.41964 28.1333 7.69352V12.6754C28.1333 12.9493 27.9116 13.171 27.6377 13.171H22.7262C22.4524 13.171 22.2306 12.9493 22.2306 12.6754V7.69352C22.2306 7.41964 22.4524 7.19794 22.7262 7.19794H27.6377ZM27.6377 6.67627H22.7262C22.1654 6.67627 21.709 7.13274 21.709 7.69352V12.6754C21.709 13.2362 22.1654 13.6927 22.7262 13.6927H27.6377C28.1985 13.6927 28.655 13.2362 28.655 12.6754V7.69352C28.6576 7.13274 28.2011 6.67627 27.6377 6.67627Z" fill="#A4A4A4"/>
<path d="M30.6342 24.8434C30.6342 24.8434 30.0787 25.5503 29.3301 24.8434V7.07283C29.3301 7.07283 29.7996 6.80678 30.6342 7.07283V24.8434Z" fill="#A4A4A4"/>
<path d="M4.3061 31.6744L3.00195 31.6797L4.51478 25.584L5.20338 26.1109L4.3061 31.6744Z" fill="white"/>
<path d="M5.25471 31.6796H3.92969L5.31994 25.7222L6.00854 26.249L5.25471 31.6796Z" fill="#616161"/>
<path d="M18.9906 31.6744L20.2947 31.6797L16.2101 25.584L15.5215 26.1109L18.9906 31.6744Z" fill="white"/>
<path d="M17.9024 31.6796H19.2249L15.2654 25.7222L14.5742 26.249L17.9024 31.6796Z" fill="#616161"/>
<path opacity="0.4" d="M2.96449 25.6677C2.96449 25.6677 1.17257 27.0501 1.44644 27.9708C1.72032 28.889 5.16332 30.1123 10.1322 30.1123C16.3348 30.1123 20.0595 28.8133 20.4742 27.7935C20.889 26.7736 18.6562 25.3442 18.6562 25.3442L2.96449 25.6677Z" fill="black"/>
<path d="M5.00781 25.6234L5.17214 26.7867C5.17214 26.7867 7.74396 26.9902 10.96 26.9902C14.1761 26.9902 16.6279 26.7241 16.6279 26.7241V25.3965L5.00781 25.6234Z" fill="black"/>
<path d="M6.8418 23.6724H15.0685L14.1712 27.5744H7.593L6.8418 23.6724Z" fill="black"/>
<path d="M4.81051 23.8157V23.8027C4.81051 23.8027 3.57416 23.7818 3.48026 24.0296C3.38896 24.2774 3.17508 26.0954 3.52721 27.7335C3.56633 27.9134 3.66806 28.1012 3.84281 28.1012H4.31231C4.48708 28.1012 4.66443 28.0099 4.95136 28.6099C5.19653 29.1237 5.67386 29.035 5.67386 28.7742V23.8157H4.81051Z" fill="black"/>
<path d="M17.0567 23.8157V23.8027C17.0567 23.8027 18.2931 23.7818 18.387 24.0296C18.4783 24.2774 18.6921 26.0954 18.34 27.7335C18.3009 27.9134 18.1992 28.1012 18.0244 28.1012H17.5549C17.3802 28.1012 17.2028 28.0099 16.9159 28.6099C16.6707 29.1237 16.1934 29.035 16.1934 28.7742V23.8157H17.0567Z" fill="black"/>
<path d="M20.4992 22.3368V10.0542C20.4992 9.34208 19.9228 8.76562 19.2107 8.76562H2.55652C1.84444 8.76562 1.26799 9.34208 1.26799 10.0542V22.3368L0.589844 24.0557C0.589844 24.0557 2.63999 25.6233 10.8536 25.6233C19.0672 25.6233 21.18 24.0557 21.18 24.0557L20.4992 22.3368Z" fill="#F7752C"/>
<path d="M13.4056 3.79161H8.55669C8.31672 3.79161 8.12109 3.59599 8.12109 3.35601C8.12109 3.11604 8.31672 2.92041 8.55669 2.92041H13.4056C13.6455 2.92041 13.8412 3.11604 13.8412 3.35601C13.8412 3.59859 13.6455 3.79161 13.4056 3.79161Z" fill="#82AEC0"/>
<path d="M9.24044 4.72514L8.71094 0.932617" stroke="#82AEC0" stroke-width="0.75"/>
<path d="M12.6719 4.6834L13.1075 0.833496" stroke="#82AEC0" stroke-width="0.75"/>
<path d="M14.5985 1.85092C14.5177 1.91872 14.4055 1.91612 14.3273 1.8483C14.1056 1.6553 13.683 1.39445 13.4561 1.32142C13.3335 1.2823 12.804 1.14927 11.1242 1.14927C9.59574 1.14927 8.54981 1.23535 8.30724 1.31882C8.08031 1.39707 7.70471 1.69182 7.50386 1.9031C7.42561 1.98655 7.30564 2.0022 7.20911 1.94482C7.08391 1.8718 7.03959 1.70225 7.11521 1.57445C7.31084 1.24057 7.68384 0.666749 8.08031 0.528499C8.64891 0.330274 10.7147 0.319824 11.1216 0.319824C11.998 0.319824 13.1509 0.356349 13.6674 0.525874C14.0743 0.658899 14.4603 1.251 14.6429 1.55095C14.7055 1.64747 14.6846 1.77787 14.5985 1.85092Z" fill="#82AEC0"/>
<path d="M1.26562 7.47476V13.9904H20.4995V7.62083L11.2921 5.74023L1.26562 7.47476Z" fill="#EEEEEE"/>
<path d="M0.580078 7.47454L1.26868 8.14749C1.26868 8.14749 4.7456 6.99461 10.8517 6.99461C16.9578 6.99461 20.4999 8.07706 20.4999 8.07706L21.1781 7.38846C20.7999 5.74784 19.2845 4.46191 14.8164 4.46191H6.31843C2.71893 4.46191 0.955678 6.13909 0.580078 7.47454Z" fill="#A4A4A4"/>
<path d="M0.580078 7.47439C0.580078 7.47439 4.7769 6.07112 10.8517 6.07112C16.9265 6.07112 21.1781 7.39094 21.1781 7.39094C20.7999 5.75029 19.2766 3.94532 14.8164 3.64537C10.5283 3.35584 10.0431 3.35584 6.31843 3.64537C2.73195 3.92447 0.958303 5.83374 0.580078 7.47439Z" fill="#D8D5D5"/>
<path d="M21.1781 25.6233C21.1781 25.6233 18.8384 26.4058 10.8517 26.4058C2.86497 26.4058 0.587891 25.6233 0.587891 25.6233V24.0557C0.587891 24.0557 5.49939 24.8382 10.9065 24.8382C16.3135 24.8382 21.1781 24.0557 21.1781 24.0557V25.6233Z" fill="#82AEC0"/>
<path d="M14.1016 21.2698C14.1016 22.2657 15.1797 22.8881 16.0422 22.3902C16.4425 22.1591 16.689 21.732 16.689 21.2698C16.689 20.2739 15.6109 19.6514 14.7484 20.1494C14.3482 20.3805 14.1016 20.8076 14.1016 21.2698Z" fill="white"/>
<path d="M5.07031 21.2698C5.07031 22.2657 6.14844 22.8881 7.01091 22.3902C7.41119 22.1591 7.65779 21.732 7.65779 21.2698C7.65779 20.2739 6.57966 19.6514 5.71719 20.1494C5.31689 20.3805 5.07031 20.8076 5.07031 21.2698Z" fill="white"/>
<path d="M9.57145 4.55322H12.1955C12.8215 4.55322 13.3275 5.05925 13.3275 5.68525V6.45992C13.3275 7.08592 12.8215 7.59192 12.1955 7.59192H9.57145C8.94545 7.59192 8.43945 7.08592 8.43945 6.45992V5.68525C8.43945 5.05925 8.94808 4.55322 9.57145 4.55322Z" fill="black"/>
<path d="M10.2822 5.14502H11.4794C12.0219 5.14502 12.4627 5.55974 12.4627 6.06837C12.4627 6.577 12.0219 6.99172 11.4794 6.99172H10.2822C9.73963 6.99172 9.29883 6.60307 9.29883 6.06837C9.29883 5.53367 9.73703 5.14502 10.2822 5.14502Z" fill="#F7752C"/>
<path d="M4.23828 9.67339C8.86808 8.81264 12.9032 8.81526 17.5147 9.67339V17.5767C12.9006 18.4348 8.86808 18.4374 4.23828 17.5767V9.67339Z" fill="#BAE2FD"/>
<path d="M10.8784 18.5962C9.25862 18.5962 6.20427 18.4136 4.71752 18.3066C4.23237 18.2727 3.85938 17.8684 3.85938 17.3833V10.0852C3.85938 9.64437 4.16978 9.26355 4.60275 9.17747C5.54698 8.99227 7.4615 8.73145 10.7506 8.73145C14.1075 8.73145 16.1446 9.00272 17.1436 9.18789C17.5818 9.26877 17.8974 9.65219 17.8974 10.0982V17.3859C17.8974 17.871 17.5244 18.2727 17.0393 18.3092C15.5525 18.4162 12.5008 18.5962 10.8784 18.5962ZM5.2131 17.1433C9.01605 17.4824 12.6703 17.4511 16.5385 17.1355C16.8828 17.1068 17.141 16.799 17.141 16.4521V10.792C17.141 10.4582 16.8984 10.1686 16.5672 10.1139C12.6286 9.46439 9.13342 9.46439 5.19485 10.1139C4.8636 10.1686 4.62103 10.4582 4.62103 10.792V16.4599C4.6184 16.8042 4.87142 17.1146 5.2131 17.1433Z" fill="black"/>
<path d="M10.4004 9.62891V9.63411C10.5856 9.63151 10.7682 9.62891 10.9508 9.62891H10.4004Z" fill="#6FBFF0"/>
<path d="M11.1833 9.62891H10.9512C11.0294 9.62891 11.1077 9.63151 11.1833 9.62891Z" fill="#6FBFF0"/>
<path opacity="0.66" d="M17.1372 10.7948C17.1372 10.4584 16.8946 10.1714 16.5634 10.1167C14.6749 9.80626 12.8908 9.64456 11.1093 9.63151C11.0311 9.63151 10.9554 9.62891 10.8772 9.62891C10.6946 9.62891 10.5094 9.63151 10.3268 9.63413C8.65229 9.66281 6.96731 9.82193 5.19104 10.1141C4.85976 10.1688 4.61719 10.4584 4.61719 10.7922V11.7599C5.21711 11.5852 7.37941 11.1365 10.452 11.0948L10.4494 17.3861C10.7103 17.3887 10.9711 17.3887 11.2319 17.3861L11.2371 11.0974C14.4141 11.1287 16.5477 11.4574 17.1372 11.5747L17.1372 10.7948Z" fill="#82AEC0"/>
<path opacity="0.66" d="M8.66922 14.6865C8.32752 14.6056 7.92062 14.6552 7.92062 14.6552C7.67022 14.6552 7.30507 14.8456 7.14334 15.0595C7.03379 15.2003 6.81729 15.2134 6.70254 15.0751C6.51734 14.8534 6.24607 14.6917 5.98784 14.6917C5.98784 14.6917 5.33837 14.5639 4.91322 14.7986C4.80627 14.8586 4.70717 14.903 4.62109 14.9447V16.4627C4.62109 16.807 4.90279 17.1174 5.24449 17.1487C6.78862 17.2844 8.20754 17.3548 9.72822 17.3731C9.72559 16.9975 9.70994 16.1471 9.58997 15.6229C9.43607 14.9395 9.01092 14.7673 8.66922 14.6865Z" fill="#82AEC0"/>
<path opacity="0.66" d="M16.6013 14.6917C16.5465 14.6787 16.4865 14.6683 16.4265 14.6604C16.4239 14.6448 16.4187 14.6291 16.4187 14.6083C16.4083 14.3109 16.5283 14.2796 16.5778 14.0683C16.6013 13.9666 16.6326 13.8649 16.6326 13.7579C16.6326 13.3197 16.3248 12.9624 15.9466 12.9624C15.8058 12.9624 15.6649 13.0094 15.558 13.1033C15.1641 13.4502 15.2606 13.9197 15.3128 14.0683C15.3806 14.2561 15.5632 14.4987 15.5893 14.7048C15.391 14.7674 15.138 14.9082 14.9502 15.0934C14.8068 15.2369 14.572 15.229 14.439 15.0778C14.2408 14.8482 14.1495 14.7778 13.8156 14.6917C13.8156 14.6917 13.5183 14.6187 13.1479 14.6552C12.7775 14.6917 12.1906 14.9656 12.0263 15.5055C11.9167 15.8655 11.8776 17.0105 11.8672 17.3731C13.3957 17.3444 14.9346 17.2688 16.51 17.141C16.8569 17.1123 17.1412 16.8019 17.1412 16.455V14.9473C16.99 14.8221 16.7943 14.7335 16.6013 14.6917Z" fill="#82AEC0"/>
</g>
<defs>
<clipPath id="clip0_443_4365">
<rect width="32" height="32" fill="white"/>
</clipPath>
</defs>
</svg>
