<svg width="21" height="28" viewBox="0 0 21 28" fill="none" xmlns="http://www.w3.org/2000/svg">
<path d="M4.00586 4.70215V23.8885C4.00586 25.6041 6.91296 26.9948 10.5002 26.9948C14.0875 26.9948 16.9946 25.6041 16.9946 23.8885V4.70215H4.00586Z" fill="#00D600"/>
<path d="M17 4.70425C17 6.74919 13.5795 8.03376 10.5056 8.03376C7.51188 8.03376 4.21922 6.74268 4.01124 4.70425C3.78812 2.50769 6.91834 1 10.5056 1C14.0929 1 17 2.65934 17 4.70425Z" fill="#9EE350"/>
<path d="M5.42383 4.09541C5.42383 6.00144 9.69132 7.19271 13.1053 6.23969C14.6897 5.7974 15.6658 4.98001 15.6658 4.09541C15.6658 2.18938 11.3983 0.998131 7.98431 1.95113C6.39988 2.39342 5.42383 3.21082 5.42383 4.09541Z" fill="#D8D5D5"/>
<path d="M13.2227 1.68848V1.83144C13.2292 1.74263 13.2227 1.68848 13.2227 1.68848Z" fill="#A4A4A4"/>
<path d="M13.3145 11.4585C13.3145 11.3155 13.2603 11.2288 13.1282 11.1769C13.0047 11.127 12.8249 11.179 12.6408 11.2267C12.2769 11.3177 11.9021 11.3696 11.5642 11.3653C11.4277 11.3632 11.4407 11.2332 11.4407 11.114V9.92694C11.4407 9.79697 11.4255 9.63232 11.1851 9.63232C11.0399 9.63232 10.8645 9.67132 10.4984 9.67566C10.1323 9.6735 9.95682 9.63232 9.81167 9.63232C9.57122 9.63232 9.55608 9.79697 9.55608 9.92694V11.114C9.55608 11.2332 9.56907 11.3631 9.43259 11.3653C9.09466 11.3696 8.71991 11.3177 8.35597 11.2267C8.16967 11.1812 7.99203 11.1292 7.86857 11.1769C7.73644 11.231 7.68227 11.3155 7.68227 11.4585L7.67578 12.5611C7.73642 12.7322 7.79925 12.8557 7.86857 12.8925C8.07219 12.9987 8.51628 13.1611 9.22679 13.1958C9.3676 13.2023 9.52574 13.1546 9.55823 13.3084C9.5734 13.3842 9.55823 14.3201 9.55823 14.6991C9.55823 15.0436 10.0565 15.0804 10.3251 15.1021C10.3836 15.1064 10.6175 15.1064 10.6738 15.1021C10.9403 15.0782 11.4407 15.0436 11.4407 14.6991C11.4407 14.3201 11.4255 13.3842 11.4407 13.3084C11.4732 13.1546 11.6292 13.2023 11.7721 13.1958C12.4827 13.1611 12.9267 12.9965 13.1304 12.8925C13.1975 12.8579 13.2625 12.7344 13.3232 12.5611L13.3145 11.4585Z" fill="white"/>
<path d="M12.9001 22.5106C12.9001 22.5106 12.0661 22.7641 10.5021 22.7641C8.93805 22.7641 8.10406 22.5106 8.10406 22.5106C7.80728 22.4673 7.68164 22.6991 7.68164 22.933V23.8472C7.68164 24.0638 7.82243 24.2653 8.07372 24.3887C8.59146 24.6444 9.42763 24.8177 10.4284 24.8068C10.4544 24.8068 10.4782 24.8047 10.5042 24.8047C10.5302 24.8047 10.5541 24.8068 10.5801 24.8068C11.583 24.8177 12.417 24.6444 12.9348 24.3887C13.186 24.2653 13.3269 24.0638 13.3269 23.8472V22.933C13.3247 22.6991 13.1969 22.4673 12.9001 22.5106Z" fill="white"/>
<path d="M9.32921 6.31835C9.6758 5.98475 8.42805 5.69664 7.83884 5.49519C7.09797 5.24173 6.32246 4.79549 6.08634 3.92249C5.90872 3.26396 5.59894 3.46976 5.54261 3.54774C5.46248 3.65821 5.15269 4.30375 5.74841 5.02078C6.15784 5.51467 6.8207 5.88945 7.38608 6.08008C8.15944 6.34218 9.09958 6.53931 9.32921 6.31835Z" fill="#F5F5F5"/>
<path d="M8.76877 3.14898C8.84024 2.90636 9.46846 2.7569 9.84972 2.75255C10.5017 2.74389 11.1733 3.24431 11.2729 3.41544C11.5524 3.892 10.9155 4.06097 9.80205 3.96349C9.05253 3.89851 8.69727 3.39376 8.76877 3.14898Z" fill="#F5F5F5"/>
<path d="M12.4747 3.54537C12.3989 3.41107 12.3209 3.27025 12.2472 3.13377C12.1693 2.99298 12.1714 3.14461 12.1541 3.20309C12.0653 3.5107 11.8898 3.64718 11.7663 3.71433C11.3938 3.91362 10.9475 4.00894 10.5034 4.00244C10.0572 4.00677 9.61311 3.91362 9.24051 3.71433C9.11487 3.64718 8.94157 3.5107 8.85275 3.20309C8.83542 3.14246 8.8376 2.99298 8.7596 3.13377C8.68379 3.27025 8.60797 3.41107 8.53214 3.54537C8.33718 3.88763 8.50616 4.26671 8.75527 4.50934C9.1907 4.93175 9.86655 5.12671 10.5056 5.12671C11.1446 5.12671 11.8205 4.93175 12.2559 4.50934C12.5029 4.26456 12.6697 3.88545 12.4747 3.54537Z" fill="#A4A4A4"/>
</svg>
