<svg width="44" height="44" viewBox="0 0 44 44" fill="none" xmlns="http://www.w3.org/2000/svg">
<g clip-path="url(#clip0_399_1282)">
<path d="M36.6557 43.5605H10.1068C9.31185 43.5605 8.66797 42.9167 8.66797 42.1217V4.32158C8.66797 3.52666 9.31185 2.88281 10.1068 2.88281H36.6593C37.4542 2.88281 38.0981 3.52666 38.0981 4.32158V42.1217C38.0945 42.9167 37.4506 43.5605 36.6557 43.5605Z" fill="white"/>
<path d="M36.6557 2.88281H34.1774V3.96191H36.6557C36.8535 3.96191 37.0154 4.12375 37.0154 4.32158V42.1217C37.0154 42.3196 36.8535 42.4814 36.6557 42.4814H10.1068C9.90891 42.4814 9.74707 42.3196 9.74707 42.1217V40.0535H8.66797V42.1217C8.66797 42.9167 9.31185 43.5605 10.1068 43.5605H36.6593C37.4542 43.5605 38.0981 42.9167 38.0981 42.1217V4.32158C38.0945 3.53027 37.4506 2.88281 36.6557 2.88281Z" fill="#6FBFF0"/>
<path d="M32.739 40.0534H4.7513C3.95638 40.0534 3.3125 39.4096 3.3125 38.6147V1.8792C3.3125 1.08427 3.95638 0.44043 4.7513 0.44043H32.739C33.5339 0.44043 34.1778 1.08427 34.1778 1.8792V38.6147C34.1778 39.4096 33.5339 40.0534 32.739 40.0534Z" fill="white"/>
<path d="M40.6854 17.9288C40.6854 18.1554 40.5487 18.3532 40.3509 18.4072C39.8509 18.5402 38.8222 18.7597 37.4733 18.7597H33.0923C32.9196 18.7597 32.7506 18.6913 32.6175 18.5618L31.1535 17.1626C30.8082 16.8317 30.8082 16.231 31.1535 15.9001L32.6175 14.5009C32.7506 14.375 32.9196 14.3031 33.0923 14.3031H38.6783C39.2466 14.3031 39.7789 14.1952 40.1531 14.098C40.4264 14.0261 40.689 14.2599 40.689 14.5764V17.9288H40.6854Z" fill="#FFD54F"/>
<path d="M40.4682 14.1484C40.4322 14.1232 40.3926 14.1016 40.3495 14.0908C40.3459 14.8174 40.3243 15.544 40.3243 16.2706V17.9251C40.3243 17.9971 40.2847 18.0475 40.2595 18.0546C39.7811 18.1841 38.7812 18.3964 37.4719 18.3964H33.0908C33.0117 18.3964 32.929 18.3604 32.8642 18.2992L31.6125 17.1015C31.4255 16.9216 31.2312 16.7633 31.1197 16.5188C31.0514 16.3641 31.019 16.1914 31.0406 16.0224C31.037 16.062 30.983 16.1159 30.9687 16.1555C30.9507 16.1986 30.9399 16.249 30.9255 16.2922C30.9003 16.3893 30.8895 16.4936 30.8967 16.5943C30.9111 16.8029 30.9974 17.008 31.1521 17.1554L32.616 18.5546C32.7491 18.6805 32.9182 18.7524 33.0908 18.7524H37.4719C38.8207 18.7524 39.8495 18.533 40.3495 18.4C40.5473 18.346 40.684 18.1482 40.684 17.9216V14.5656C40.684 14.4146 40.6012 14.2419 40.4682 14.1484Z" fill="#F3AB47"/>
<path d="M40.6854 33.2296C40.6854 33.4562 40.5487 33.654 40.3509 33.708C39.8509 33.841 38.8222 34.0605 37.4733 34.0605H33.0923C32.9196 34.0605 32.7506 33.9921 32.6175 33.8626L31.1535 32.4634C30.8082 32.1325 30.8082 31.5318 31.1535 31.2009L32.6175 29.8017C32.7506 29.6758 32.9196 29.6039 33.0923 29.6039H38.6783C39.2466 29.6039 39.7789 29.496 40.1531 29.3988C40.4264 29.3269 40.689 29.5607 40.689 29.8772V33.2296H40.6854Z" fill="#0091EA"/>
<path d="M40.4682 29.4463C40.4322 29.4211 40.3926 29.3995 40.3495 29.3887C40.3459 30.1153 40.3243 30.8418 40.3243 31.5684V33.223C40.3243 33.2949 40.2847 33.3453 40.2595 33.3525C39.7811 33.482 38.7812 33.6942 37.4719 33.6942H33.0908C33.0117 33.6942 32.929 33.6583 32.8642 33.5971L31.6125 32.3993C31.4255 32.2195 31.2312 32.0612 31.1197 31.8166C31.0514 31.662 31.019 31.4893 31.0406 31.3202C31.037 31.3598 30.983 31.4138 30.9687 31.4533C30.9507 31.4965 30.9399 31.5468 30.9255 31.59C30.9003 31.6871 30.8895 31.7914 30.8967 31.8922C30.9111 32.1008 30.9974 32.3058 31.1521 32.4533L32.616 33.8525C32.7491 33.9784 32.9182 34.0503 33.0908 34.0503H37.4719C38.8207 34.0503 39.8495 33.8309 40.3495 33.6978C40.5473 33.6438 40.684 33.446 40.684 33.2194V29.8635C40.684 29.7124 40.6012 29.5434 40.4682 29.4463Z" fill="#01579B"/>
<path opacity="0.25" d="M4.41992 2.88281C4.41631 2.91519 8.39453 2.94397 8.39453 2.97635L8.66788 12.9722V41.1506H33.8392C34.6341 41.1506 35.278 40.5067 35.278 39.7118V2.97635C35.278 2.94397 35.2708 2.91519 35.2672 2.88281H4.41992Z" fill="black"/>
<path d="M32.739 40.0534H4.7513C3.95638 40.0534 3.3125 39.4096 3.3125 38.6147V1.8792C3.3125 1.08427 3.95638 0.44043 4.7513 0.44043H32.739C33.5339 0.44043 34.1778 1.08427 34.1778 1.8792V38.6147C34.1778 39.4096 33.5339 40.0534 32.739 40.0534Z" fill="white"/>
<path d="M32.739 1.5195C32.9368 1.5195 33.0987 1.68137 33.0987 1.8792V38.6147C33.0987 38.8125 32.9368 38.9744 32.739 38.9744H4.7513C4.55344 38.9744 4.3916 38.8125 4.3916 38.6147V1.8792C4.3916 1.68137 4.55344 1.5195 4.7513 1.5195H32.739ZM32.739 0.44043H4.7513C3.95638 0.44043 3.3125 1.08427 3.3125 1.8792V38.6147C3.3125 39.4096 3.95638 40.0534 4.7513 40.0534H32.739C33.5339 40.0534 34.1778 39.4096 34.1778 38.6147V1.8792C34.1778 1.08427 33.5339 0.44043 32.739 0.44043Z" fill="#6FBFF0"/>
<path d="M8.00977 9.96484H28.5518" stroke="#A4A4A4" stroke-width="0.9663" stroke-linecap="round"/>
<path d="M8.00977 14.918H28.5518" stroke="#A4A4A4" stroke-width="0.9663" stroke-linecap="round"/>
<path d="M8.00977 19.874H28.5518" stroke="#A4A4A4" stroke-width="0.9663" stroke-linecap="round"/>
<path d="M8.00977 24.8311H28.5518" stroke="#A4A4A4" stroke-width="0.9663" stroke-linecap="round"/>
<path d="M8.00977 29.7842H16.797" stroke="#A4A4A4" stroke-width="0.9663" stroke-linecap="round"/>
<path d="M40.0155 11.0372C40.0155 11.2638 39.8788 11.4616 39.6809 11.5156C39.181 11.6487 38.1523 11.8681 36.8034 11.8681H32.4224C32.2497 11.8681 32.0806 11.7997 31.9475 11.6702L30.4836 10.271C30.1383 9.94012 30.1383 9.33941 30.4836 9.00852L31.9475 7.60932C32.0806 7.4834 32.2497 7.41146 32.4224 7.41146H38.0084C38.5767 7.41146 39.1091 7.30355 39.4831 7.20645C39.7565 7.1345 40.0191 7.36832 40.0191 7.68484V11.0372H40.0155Z" fill="#FB0000"/>
<path d="M40.0155 26.3379C40.0155 26.5646 39.8788 26.7624 39.6809 26.8163C39.181 26.9494 38.1523 27.1689 36.8034 27.1689H32.4224C32.2497 27.1689 32.0806 27.1005 31.9475 26.971L30.4836 25.5718C30.1383 25.2409 30.1383 24.6402 30.4836 24.3093L31.9475 22.9101C32.0806 22.7842 32.2497 22.7122 32.4224 22.7122H38.0084C38.5767 22.7122 39.1091 22.6043 39.4831 22.5072C39.7565 22.4353 40.0191 22.6691 40.0191 22.9856V26.3379H40.0155Z" fill="#9CCC65"/>
<path d="M39.8038 7.2607C39.7678 7.23551 39.7282 7.21392 39.6851 7.20312C39.6815 7.92971 39.6599 8.65629 39.6599 9.38288V11.0375C39.6599 11.1094 39.6203 11.1598 39.5952 11.167C39.1168 11.2965 38.1168 11.5087 36.8075 11.5087H32.4229C32.3438 11.5087 32.261 11.4727 32.1963 11.4116L30.9445 10.2138C30.7575 10.0339 30.5633 9.87568 30.4518 9.63107C30.3834 9.47641 30.3511 9.30375 30.3726 9.13469C30.369 9.17426 30.3151 9.22822 30.3007 9.26779C30.2827 9.31093 30.2719 9.36129 30.2575 9.40447C30.2324 9.50157 30.2216 9.6059 30.2287 9.70662C30.2431 9.91524 30.3295 10.1203 30.4842 10.2677L31.9481 11.6669C32.0812 11.7928 32.2502 11.8648 32.4229 11.8648H36.804C38.1528 11.8648 39.1815 11.6453 39.6815 11.5123C39.8793 11.4583 40.016 11.2605 40.016 11.0339V7.67795C40.016 7.52687 39.9333 7.3542 39.8038 7.2607Z" fill="#C62828"/>
<path d="M39.8038 22.5546C39.7678 22.5295 39.7282 22.5079 39.6851 22.4971C39.6815 23.2237 39.6599 23.9502 39.6599 24.6768V26.3314C39.6599 26.4033 39.6203 26.4537 39.5952 26.4609C39.1168 26.5904 38.1168 26.8026 36.8075 26.8026H32.4229C32.3438 26.8026 32.261 26.7666 32.1963 26.7055L30.9445 25.5077C30.7575 25.3279 30.5633 25.1696 30.4518 24.925C30.3834 24.7703 30.3511 24.5977 30.3726 24.4286C30.369 24.4682 30.3151 24.5221 30.3007 24.5617C30.2827 24.6049 30.2719 24.6552 30.2575 24.6984C30.2324 24.7955 30.2216 24.8998 30.2287 25.0005C30.2431 25.2092 30.3295 25.4142 30.4842 25.5617L31.9481 26.9609C32.0812 27.0868 32.2502 27.1587 32.4229 27.1587H36.804C38.1528 27.1587 39.1815 26.9393 39.6815 26.8062C39.8793 26.7522 40.016 26.5544 40.016 26.3278V22.9719C40.016 22.8208 39.9333 22.6481 39.8038 22.5546Z" fill="#7CB342"/>
</g>
<defs>
<clipPath id="clip0_399_1282">
<rect width="44" height="44" fill="white"/>
</clipPath>
</defs>
</svg>
