<svg width="32" height="32" viewBox="0 0 32 32" fill="none" xmlns="http://www.w3.org/2000/svg">
<path d="M6.26367 4.35627C6.26367 4.35627 6.26367 3.46507 6.32645 3.30439C6.3892 3.14624 7.40842 1.77557 7.53647 1.64752C7.6645 1.51949 11.6134 1.48937 15.7229 1.45674C19.6743 1.42662 24.07 1.55212 24.2282 1.61489C24.3863 1.67764 25.4708 3.08097 25.5336 3.17637C25.5964 3.27177 25.629 4.54704 25.629 4.54704L6.26367 4.35627Z" fill="#F7752C"/>
<path d="M3.67666 7.83095C3.67666 7.83095 2.85074 7.53472 2.08756 8.08952C1.22901 8.7121 1.37711 9.67862 1.37711 9.67862C1.37711 9.67862 0.388012 9.57067 0.345337 10.4317C0.322762 10.866 0.302662 12.43 0.345337 12.9899C0.382987 13.4819 0.967937 13.7204 1.61311 13.7204C2.38631 13.7204 2.68756 13.3765 2.71016 12.9899C2.73274 12.6033 2.73274 10.4317 2.73274 10.1957C2.73274 9.82925 2.49676 9.76647 2.49676 9.76647C2.49676 9.76647 2.38881 9.1213 2.96871 8.88532C3.33274 8.7372 3.82729 8.86272 3.82729 8.86272L3.67666 7.83095Z" fill="#A4A4A4"/>
<path d="M28.0039 18.1463C28.0039 18.1463 28.6918 18.2793 29.1211 18.0182C29.6156 17.717 29.5302 17.2651 29.5302 17.2651C29.5302 17.2651 29.1637 17.1998 29.1863 16.8986C29.2139 16.512 29.1863 14.0191 29.1863 13.8685C29.1863 13.7179 29.357 13.4392 29.7235 13.3966C30.0901 13.3539 30.906 13.379 31.2072 13.3966C31.5737 13.4191 31.6792 14.0417 31.6792 14.3857C31.6792 14.7296 31.6139 16.6199 31.5938 16.7931C31.5712 16.9638 31.4432 17.2651 31.1645 17.3078C30.8683 17.353 30.6047 17.3505 30.6047 17.3505C30.6047 17.3505 30.7127 18.3596 30.0449 18.8969C29.3796 19.4341 28.024 19.2408 28.024 19.2408C28.024 19.2408 28.024 18.1036 28.0039 18.1463Z" fill="#A4A4A4"/>
<path d="M22.5781 28.4291C22.5781 28.4291 22.5781 29.3755 22.6007 29.8475C22.6233 30.3194 22.9446 30.5353 23.5898 30.5353C24.235 30.5353 25.2241 30.4826 25.5454 30.47C26.1479 30.4474 26.4266 29.9981 26.5772 29.6968C26.7278 29.3956 26.7278 28.2559 26.7278 28.2559L22.5781 28.4291Z" fill="#4D423D"/>
<path d="M5.05133 28.3987C5.05133 28.3987 4.97351 28.6598 5.15928 29.2798C5.28731 29.7091 5.78438 30.4447 6.44963 30.4823C7.20276 30.525 7.67473 30.5476 8.12658 30.5476C8.90983 30.5476 9.26633 30.161 9.26633 29.7945C9.26633 29.4279 9.33158 28.248 9.33158 28.248L5.05133 28.3987Z" fill="#4D423D"/>
<path d="M4.71359 22.6702L3.44332 19.6176L3.33789 18.5055C3.33789 18.5055 3.41319 7.79603 3.59897 5.45383C3.67929 4.45218 4.34457 4.35425 4.93702 4.26388C5.90352 4.11578 10.2917 3.70658 15.2372 3.66893C20.1827 3.63125 25.6504 3.96765 26.878 4.18858C28.1056 4.4095 27.9926 5.3032 28.1056 6.08393C28.2186 6.86465 28.4044 11.1776 28.4044 13.447C28.4044 15.7164 28.4797 18.4302 28.4797 18.4302L27.7366 21.8518L17.2129 23.4133L4.71359 22.6702Z" fill="#F7752C"/>
<path d="M4.82452 7.72301L26.9513 7.53724C26.9513 7.53724 26.876 5.19504 24.9806 4.89629C23.0852 4.59754 8.69307 4.63521 6.49897 5.11971C4.6011 5.53644 4.82452 7.72301 4.82452 7.72301Z" fill="#2F2F2F"/>
<path d="M3.33452 18.5054L3.29688 25.035L3.7387 27.5278L27.7759 27.5002L28.4688 24.6484L28.4713 18.4326C28.4713 18.4326 27.6654 19.8861 26.2797 20.1623C24.8939 20.4384 20.7694 20.9656 16.3937 20.8828C12.018 20.7999 7.00728 20.938 5.09433 20.1071C3.3722 19.3564 3.33452 18.5054 3.33452 18.5054Z" fill="#C9C8C6"/>
<path d="M4.04773 22.5994C3.92723 23.5057 4.43433 24.2613 6.67863 24.3994C8.92295 24.5375 11.8024 24.5099 16.7856 24.5927C21.7712 24.6756 24.8088 24.3291 26.1444 24.2061C27.6406 24.068 28.2481 23.3476 28.1376 22.489C28.0272 21.6304 26.649 21.5375 25.4791 21.658C24.1511 21.7961 19.8859 21.9066 16.645 21.879C13.404 21.8513 8.05935 21.7133 7.31375 21.6857C6.56818 21.658 4.26863 20.9376 4.04773 22.5994Z" fill="#E3E4DE"/>
<path d="M3.29883 25.037C3.29883 25.037 3.32395 27.1131 3.35408 27.5022C3.4093 28.2227 3.76828 28.7198 5.0988 28.775C6.42933 28.8302 12.8259 28.775 16.4258 28.8026C20.0257 28.8302 26.3394 28.7198 27.1704 28.6921C28.0013 28.6645 28.3101 28.0545 28.3603 27.4194C28.418 26.7165 28.4708 24.6504 28.4708 24.6504C28.4708 24.6504 26.8917 25.5089 25.4256 25.5642C23.9596 25.6194 6.3992 25.637 5.68123 25.5968C4.1574 25.5115 3.29883 25.037 3.29883 25.037Z" fill="#474C4F"/>
<path d="M4.7657 26.1164C4.43432 26.0612 4.10043 25.7574 3.8519 25.9784C3.57325 26.2269 3.74145 26.8369 4.46193 26.9198C5.18243 27.0026 6.95478 27.0855 9.39237 27.0578C11.83 27.0302 21.0231 26.975 23.0716 27.0026C25.1201 27.0302 26.4506 26.9198 26.8925 26.7541C27.3343 26.5884 27.9167 25.9231 27.8062 25.6746C27.6958 25.4261 27.0581 25.8679 26.6439 25.9507C26.2297 26.0336 24.3996 26.1441 22.5168 26.1164C20.634 26.0888 8.6995 26.1717 7.369 26.1717C6.0385 26.1717 5.23765 26.1943 4.7657 26.1164Z" fill="#5E6367"/>
<path d="M10.0214 21.6582C9.22058 21.6055 8.43733 22.1603 8.45741 23.1821C8.47751 24.2063 9.16033 24.746 10.0013 24.746C10.8423 24.746 11.5854 24.2841 11.6055 23.2021C11.6256 22.1201 10.9252 21.7185 10.0214 21.6582Z" fill="white"/>
<path d="M6.53017 21.5175C5.82724 21.4774 5.04649 21.7385 4.96617 22.8631C4.88584 23.9878 5.74942 24.3468 6.27159 24.3869C6.79377 24.4271 7.73514 24.1861 7.79539 23.0614C7.85064 22.0347 7.21549 21.5577 6.53017 21.5175Z" fill="#FF8C00"/>
<path d="M22.1808 21.7184C21.1968 21.7787 20.5968 22.5218 20.6771 23.4632C20.7574 24.4046 21.4403 24.9066 22.3214 24.8464C23.062 24.7962 23.9055 24.3644 23.8854 23.2222C23.8653 22.0799 22.9842 21.6682 22.1808 21.7184Z" fill="white"/>
<path d="M25.9345 21.4372C25.1889 21.4598 24.3605 22.0899 24.4709 23.1217C24.5713 24.0656 25.3947 24.4271 26.055 24.387C26.7177 24.3468 27.4382 23.7443 27.3805 22.7828C27.3202 21.8188 26.6173 21.4171 25.9345 21.4372Z" fill="#FF8C00"/>
<path d="M5.10854 8.58646C4.67676 8.62661 4.40311 8.69941 4.29016 9.31446C4.17719 9.92951 4.10941 12.4977 4.03911 13.9763C3.97134 15.4549 3.97134 17.0014 4.03911 17.5687C4.10689 18.1361 4.58386 18.4549 5.47256 18.5227C6.35874 18.5904 10.7017 18.7034 13.2473 18.7034C15.7929 18.7034 26.3667 18.475 27.0019 18.4072C27.6395 18.3394 27.7751 17.8624 27.8202 17.3829C27.8654 16.906 27.8202 15.4273 27.7299 13.3587C27.6395 11.2901 27.4562 9.15381 27.4111 8.81238C27.3659 8.47096 27.0019 8.42578 26.6378 8.42578C26.2738 8.42578 18.7702 8.42578 15.7251 8.49356C12.6774 8.56386 5.58554 8.54126 5.10854 8.58646Z" fill="black"/>
<path d="M5.05954 10.4268C4.98174 10.836 4.87879 12.0184 4.85369 13.3137C4.82859 14.6091 4.76331 16.6777 4.80851 17.0417C4.85369 17.4057 5.24029 17.5639 5.71729 17.5639C6.19429 17.5639 10.8335 17.6316 15.0158 17.6768C18.3346 17.712 25.7479 17.5413 26.3604 17.471C26.7771 17.4258 26.9278 17.0844 26.9278 16.6978C26.9278 16.3112 26.86 14.1748 26.8374 13.0602C26.8148 11.9456 26.6315 10.5824 26.5637 10.0828C26.496 9.58326 26.132 9.53806 25.7453 9.51548C25.3587 9.49288 19.5622 9.57823 15.6058 9.60586C12.4452 9.62843 7.42184 9.71881 5.98841 9.78661C5.17504 9.82928 5.12984 10.0627 5.05954 10.4268Z" fill="#96C8ED"/>
<path d="M6.06137 16.1101L11.9508 16.0875L11.9809 9.65332C11.9809 9.65332 10.673 9.66085 8.75504 9.70855C7.24879 9.7462 5.99609 9.79137 5.99609 9.79137L6.06137 16.1101Z" fill="#AFE3FB"/>
<path d="M12.7796 9.63332L12.7695 16.1102H18.7042L18.7268 9.58562C18.7268 9.58562 17.2004 9.58062 15.7896 9.59817C14.1553 9.62077 12.7796 9.63332 12.7796 9.63332Z" fill="#AFE3FB"/>
<path d="M19.666 9.57329L19.6786 14.8853C19.6786 14.8853 19.9748 14.7322 20.2233 14.6795C20.6551 14.5891 21.2225 14.5891 21.2225 14.5891C21.2225 14.5891 21.2476 13.3615 21.2476 12.9975C21.2476 12.6335 21.5212 12.4075 21.8149 12.3824C22.1111 12.3599 23.0425 12.3599 23.2936 12.3824C23.5446 12.405 23.7027 12.7013 23.7253 12.9498C23.7479 13.1983 23.8157 14.5866 23.8157 14.5866L25.2266 14.564L25.1964 9.51807C25.1964 9.51807 23.4442 9.51807 22.3773 9.53062C21.3003 9.54569 19.666 9.57329 19.666 9.57329Z" fill="#AFE3FB"/>
</svg>
