<svg width="44" height="44" viewBox="0 0 44 44" fill="none" xmlns="http://www.w3.org/2000/svg">
<path d="M1.375 1.375H42.625V42.625H1.375V1.375Z" fill="white"/>
<path d="M42.6244 8.37012H1.91406" stroke="#A4A4A4" stroke-width="0.5"/>
<path d="M42.6236 15.0117H1.87891" stroke="#A4A4A4" stroke-width="0.5"/>
<path d="M42.6243 21.6523H1.8418" stroke="#A4A4A4" stroke-width="0.5"/>
<path d="M42.6235 28.2939H1.80664" stroke="#A4A4A4" stroke-width="0.5"/>
<path d="M42.6242 34.9385H1.76953" stroke="#A4A4A4" stroke-width="0.5"/>
<path d="M13.3107 41.9067H7.52539V19.037C7.52539 18.5695 7.90352 18.1914 8.37102 18.1914H12.4651C12.9326 18.1914 13.3107 18.5695 13.3107 19.037V41.9067Z" fill="#00D600"/>
<path d="M24.8942 41.9068H19.1055V25.7265C19.1055 25.259 19.4836 24.8809 19.9511 24.8809H24.0452C24.5127 24.8809 24.8908 25.259 24.8908 25.7265V41.9068H24.8942Z" fill="#FB0000"/>
<path d="M35.6272 41.9068H31.5331C31.0656 41.9068 30.6875 41.5286 30.6875 41.0611V8.88957C30.6875 8.42207 31.0656 8.04395 31.5331 8.04395H35.6272C36.0947 8.04395 36.4728 8.42207 36.4728 8.88957V41.0611C36.4728 41.5286 36.0947 41.9068 35.6272 41.9068Z" fill="#0091EA"/>
<path d="M42.625 41.25H2.75V1.375H1.375V42.625H42.625V41.25Z" fill="#A4A4A4"/>
<path d="M41.9375 2.0625V41.9375H2.0625V2.0625H41.9375ZM42.625 1.375H1.375V42.625H42.625V1.375Z" fill="#A4A4A4"/>
</svg>
