<svg width="44" height="44" viewBox="0 0 44 44" fill="none" xmlns="http://www.w3.org/2000/svg">
<path d="M33.9627 20.378C34.7557 19.7244 39.3349 16.8918 41.8425 14.5057C43.7999 12.6412 44.5572 7.7726 41.546 5.4044C37.6311 2.32894 33.8734 5.55799 33.8734 5.55799C33.8734 5.55799 33.5448 3.73271 31.2587 2.66114C28.3798 1.31092 24.7328 0.807295 21.3787 0.85016C18.1282 0.889451 15.1349 1.28236 12.4774 2.58613C10.0985 3.75416 9.95559 5.4187 9.95559 5.4187C9.95559 5.4187 6.83372 2.43609 3.00816 4.85787C-0.81386 7.28324 0.282737 12.1411 2.12232 14.1807C4.51908 16.8382 7.39809 18.192 8.7054 19.1707C10.0092 20.1494 11.2594 21.0817 11.2594 21.9211C11.2594 22.7605 10.8879 22.9463 10.745 22.8998C10.6057 22.8534 10.3593 22.0354 9.71984 22.3855C8.8483 22.8677 9.11261 24.8108 10.9307 24.9966C12.6917 25.1788 13.0275 23.3178 13.0275 23.3178L13.3061 21.4996L16.1958 23.5035L19.3641 26.1146L19.2713 28.3506C19.2713 28.3506 19.132 30.0759 18.2926 31.569C17.4532 33.062 16.1029 34.5515 16.1029 34.5515L16.0601 35.9018L27.8082 35.6232L27.4368 34.3194C27.4368 34.3194 25.9223 32.6548 25.0114 30.8689C24.3613 29.5901 24.2577 28.3006 24.2577 28.3006L24.2292 25.093L30.3265 21.3567C30.3265 21.3567 30.9801 21.8711 30.8873 22.0569C30.7944 22.2426 30.773 24.1464 32.2375 24.8537C33.6841 25.5538 34.8486 24.6679 34.7093 23.4535C34.5699 22.2426 33.8234 22.6605 33.5913 22.8463C33.359 23.032 32.8447 23.0784 32.7054 22.3783C32.5625 21.6854 33.1697 21.0317 33.9627 20.378ZM3.94756 13.7842L2.55094 9.5336L4.24047 7.32253L6.1336 6.76888C6.1336 6.76888 8.55182 8.57271 8.63755 8.71918C8.72328 8.86562 10.1806 11.8625 10.1806 11.8625L12.1023 18.8207L3.94756 13.7842ZM31.4016 19.3743C31.4302 19.2279 33.2055 11.9196 33.2055 11.9196C33.2055 11.8339 34.4556 11.2517 34.4556 11.1338C34.4556 11.0159 36.7274 7.31895 36.7274 7.31895L40.5137 7.46542L41.2995 11.2196L39.4064 14.3343C39.4099 14.3378 31.3731 19.5172 31.4016 19.3743Z" fill="#FEC417"/>
<path d="M42.1051 10.1224C41.8265 6.79336 38.5332 5.99682 37.1794 6.47903C35.8256 6.96124 34.9469 7.86496 34.6469 9.15086C34.404 10.1903 34.1611 10.8833 33.8825 10.9904C33.5753 11.1047 33.2931 11.0583 33.2931 11.0583C33.2931 11.0583 33.2431 8.80797 33.2574 7.90068C33.2931 6.02896 33.8646 5.55032 33.8646 5.55032C33.8646 5.55032 33.7432 4.9181 33.5003 4.56806C33.2574 4.22156 32.8073 3.77148 32.8073 3.77148C32.8073 3.77148 32.9109 4.67163 32.4608 4.88238C32.0108 5.09313 31.525 4.77881 31.525 4.77881L31.9751 6.65049C31.9751 6.65049 31.2464 15.9805 31.1785 16.1876C31.1107 16.3948 28.371 21.1455 28.371 21.1455C28.371 21.1455 26.7743 22.6386 26.0135 22.985C25.2491 23.3315 24.5918 24.2352 21.645 24.2674C18.6981 24.3031 16.1656 21.9778 16.1656 21.9778L13.6331 19.5488L11.7613 14.0337L11.4827 8.41503L11.6006 6.37188L11.6828 5.51818L11.5506 5.08598C11.5506 5.08598 11.3077 5.32888 10.8577 5.22531C10.4076 5.1217 10.2326 4.53234 10.2326 4.53234C10.2326 4.53234 10.0576 4.81095 10.0254 4.95024C9.98966 5.08956 9.95395 5.41103 9.95395 5.41103C9.95395 5.41103 10.4397 5.92181 10.5433 6.65049C10.6469 7.37918 10.5076 10.3975 9.98966 10.326C9.46816 10.2582 9.63962 7.72567 7.66433 6.7541C5.95338 5.91112 3.39942 6.16471 2.35642 8.27932C1.31699 10.3939 2.07781 12.8907 5.339 15.2161C8.60019 17.5414 12.0721 19.4953 12.6222 21.3598C13.2795 23.578 11.7899 24.8961 11.7899 24.8961C11.7899 24.8961 12.8722 24.746 13.4045 23.5851C13.5759 23.2101 13.6402 22.6636 13.6652 22.3385C14.8976 23.9459 16.5371 25.3068 18.7088 25.9641C19.5304 26.2462 20.4555 26.3891 21.7414 26.3891C21.9272 26.3891 22.1093 26.382 22.2915 26.3748C23.7953 26.3213 25.0812 26.0391 26.3278 25.4211C28.0102 24.6424 29.3139 23.453 30.3212 22.1028C30.2927 22.4243 30.4891 23.2244 30.8642 23.8566C31.5214 24.9675 32.6323 25.0354 32.6323 25.0354C32.6323 25.0354 31.1071 24.1352 31.4178 21.9849C31.7286 19.8346 33.1502 19.0702 35.3006 17.6843C37.458 16.2948 42.3802 13.4515 42.1051 10.1224ZM6.86779 14.841C5.89979 14.1587 4.20311 13.2479 3.503 11.8584C2.57071 10.0046 3.32799 7.76493 5.09968 7.4899C8.7788 6.91123 8.84666 11.4798 9.08955 12.0334C9.33245 12.5871 10.0254 12.6228 10.0254 12.6228C10.0254 12.6228 10.0504 12.93 10.1504 13.523C10.154 13.5408 10.1575 13.5551 10.1575 13.5729L10.1683 13.6265C10.2361 14.0302 10.3326 14.5338 10.4683 15.1089L10.479 15.1517C10.554 15.4768 10.6326 15.784 10.7148 16.0662C10.8791 16.6591 11.0791 17.2985 11.3256 17.9557C10.9684 17.7128 8.92166 16.2948 6.86779 14.841ZM40.1977 12.2728C39.4298 13.5158 37.8759 14.4409 36.7294 15.2196C35.2505 16.2233 33.0502 17.7307 32.4287 18.1522C32.5716 17.7736 32.6966 17.3985 32.8109 17.0306C32.9966 16.5448 33.1931 15.9519 33.3288 15.3125C33.686 13.6337 33.7468 12.1656 33.7468 12.1656C33.7468 12.1656 34.4754 12.3728 34.9255 11.887C35.3756 11.4012 35.5435 9.89384 35.965 9.183C36.6222 8.07214 37.9402 6.9291 39.9191 8.31503C41.0621 9.11872 41.105 10.8011 40.1977 12.2728Z" fill="#FFA828"/>
<path d="M20.8874 27.507L22.9056 27.482C22.9056 27.482 22.9592 29.6859 23.2771 31.329C23.595 32.9756 24.02 34.8045 24.02 34.8045C24.02 34.8045 19.9087 36.1833 19.9337 34.6973C19.9587 33.2114 20.5695 30.3181 20.5695 30.3181C20.5695 30.3181 20.941 26.8712 20.8874 27.507Z" fill="#FFA828"/>
<path d="M17.5024 4.60418C17.5024 4.60418 19.7492 4.35056 21.8388 4.3827C23.9283 4.41484 26.0787 4.82562 26.0787 4.82562C26.0787 4.82562 25.9537 11.8195 25.5714 15.7451C25.1928 19.6707 23.7069 22.6104 23.3104 23.4427C22.9282 24.2499 22.6496 24.6821 22.6496 24.6821L20.635 24.4464L17.1523 17.4525L17.5024 4.60418Z" fill="#FFA828"/>
<path d="M14.8106 5.65038C14.8106 5.65038 15.4429 5.33248 16.3609 4.98598C17.1931 4.67165 17.9432 4.5752 17.9432 4.5752C17.9432 4.5752 17.9647 9.21163 18.0397 12.5192C18.104 15.3375 19.147 19.956 19.6542 21.1919C20.1614 22.4279 21.0759 24.3138 21.0759 24.3138C21.0759 24.3138 19.2363 24.0495 18.104 22.6136C17.5075 21.8563 14.7178 15.9983 14.6213 12.137C14.5249 8.27577 14.9035 5.55392 14.8106 5.65038Z" fill="#FFEFAB"/>
<path d="M13.7642 6.18671C13.7 6.37601 13.1963 10.3659 13.9857 14.0664C14.7751 17.767 15.9431 20.2995 16.7147 21.3032C17.4005 22.1926 17.847 22.6141 18.1006 22.6141C18.3542 22.6141 17.0576 19.5458 16.4539 17.1383C15.8538 14.7344 15.5359 11.8518 15.4716 10.4302C15.4073 9.00498 15.3466 5.33301 15.3466 5.33301C15.3466 5.33301 14.6501 5.65091 14.4929 5.74379C14.3358 5.84021 13.7642 6.18671 13.7642 6.18671Z" fill="white"/>
<path d="M18.3242 34.5445C18.3242 34.5445 19.6851 32.3299 19.9709 30.6511C20.2566 28.9723 20.4138 27.4863 20.4138 27.4863L21.2568 27.5221C21.2568 27.5221 21.1746 29.9546 21.0782 31.6012C20.9818 33.2479 20.6996 34.8624 20.6996 34.8624L18.3242 34.5445Z" fill="#FFEFAB"/>
<path d="M19.3702 26.114C19.3702 26.114 20.0025 25.4961 21.742 25.4961C23.4815 25.4961 24.2281 26.164 24.2281 26.164L24.2745 28.3108C24.2745 28.3108 23.1172 27.95 21.7099 27.9321C20.5383 27.9179 19.2773 28.3537 19.2773 28.3537L19.3702 26.114Z" fill="#D1701C"/>
<path d="M11.7723 4.79302C12.0652 4.52156 14.8728 2.4141 21.5202 2.35693C28.6712 2.29265 31.3538 4.3644 31.5217 4.4787C31.711 4.60372 31.9325 5.17524 31.8396 5.42882C31.7431 5.68244 31.5538 5.77532 31.018 5.55384C30.4787 5.3324 27.8211 3.39282 21.4273 3.59285C15.2871 3.78216 12.6832 5.6503 12.4082 5.80746C12.1867 5.93248 11.7759 5.96462 11.5866 5.71101C11.3937 5.46096 11.583 4.97163 11.7723 4.79302Z" fill="#D1701C"/>
<path d="M31.8403 6.28285C31.0187 6.34716 31.5867 12.9624 29.8471 17.1059C27.9826 21.5387 25.6037 22.8032 25.7001 23.0567C25.7966 23.3104 28.1255 22.6067 29.5936 20.5242C30.9545 18.5954 31.776 16.8844 32.1582 14.6055C32.5333 12.3266 32.7547 6.21142 31.8403 6.28285Z" fill="#D1701C"/>
<path d="M11.5974 7.04006C11.3902 7.02937 11.6009 10.3299 11.2652 11.7801C11.1366 12.3373 10.8222 12.4516 10.7901 12.5766C10.758 12.7016 11.4795 16.9487 12.6904 18.8133C13.862 20.6171 16.173 22.8638 16.5517 22.4852C16.9303 22.1066 14.8728 20.8385 13.4833 18.0846C12.6832 16.5058 11.8688 14.1268 11.8367 11.405C11.8152 9.60475 12.0403 7.06509 11.5974 7.04006Z" fill="#D1701C"/>
<path d="M30.2643 39.4373L30.2607 34.333H13.8761C13.9261 34.333 13.8868 38.4836 13.8797 39.4552H11.5508V43.1522H32.3574V39.4552L30.2643 39.4373Z" fill="#865C50"/>
<path d="M19.1264 37.0159C18.7227 36.998 18.2584 37.0802 18.2405 37.5802C18.2227 38.0803 18.2227 39.527 18.2227 39.802C18.2227 40.077 18.4477 40.3164 19.0121 40.3342C19.5764 40.3521 24.8737 40.3342 25.2451 40.3342C25.6166 40.3342 25.8095 40.0128 25.8238 39.6913C25.8417 39.3698 25.8059 38.016 25.8059 37.6481C25.8059 37.0373 25.2594 37.0373 24.8879 37.0373C24.4879 37.0302 19.1264 37.0159 19.1264 37.0159Z" fill="#FCC219"/>
</svg>
