<svg width="28" height="28" viewBox="0 0 28 28" fill="none" xmlns="http://www.w3.org/2000/svg">
<path d="M24.7717 21H2.85652C2.38396 21 2 20.616 2 20.1435V6.86046C2 6.38593 2.38396 6 2.86046 6H24.7698C25.2443 6 25.6302 6.38396 25.6302 6.86046V20.1435C25.6283 20.616 25.2443 21 24.7717 21Z" fill="#2E7D32"/>
<path d="M24.7973 18.6017H2.83093C2.37214 18.6017 2 18.2296 2 17.7708V6.86046C2 6.38593 2.38396 6 2.86046 6H24.7698C25.2443 6 25.6302 6.38396 25.6302 6.86046V17.7708C25.6283 18.2296 25.2561 18.6017 24.7973 18.6017Z" fill="#00D600"/>
<path d="M9.02604 13.7696C9.02604 13.5274 8.94137 13.3226 8.77203 13.1572C8.6027 12.9918 8.31522 12.8402 7.91157 12.7063C7.3504 12.535 6.94084 12.3125 6.68487 12.0368C6.42693 11.7612 6.29894 11.4107 6.29894 10.9873C6.29894 10.5542 6.42496 10.1997 6.677 9.92407C6.92903 9.64644 7.27558 9.48301 7.71467 9.42985V8.7466C7.71467 8.64618 7.79737 8.56348 7.89779 8.56348H8.12029C8.22071 8.56348 8.30341 8.64618 8.30341 8.7466V9.43378C8.74644 9.49482 9.09101 9.67991 9.33714 9.99102C9.55767 10.2706 9.67975 10.6408 9.70338 11.1035C9.70732 11.1941 9.6325 11.2689 9.54192 11.2689H9.13433C9.0477 11.2689 8.98075 11.2 8.97287 11.1134C8.95121 10.8121 8.86458 10.5679 8.71296 10.3809C8.53575 10.1623 8.2975 10.0521 7.99821 10.0521C7.68513 10.0521 7.44491 10.1328 7.27952 10.2962C7.11412 10.4577 7.02945 10.6861 7.02945 10.9755C7.02945 11.2453 7.11806 11.4599 7.2933 11.6194C7.46854 11.7789 7.75799 11.9246 8.15967 12.0546C8.56135 12.1845 8.87442 12.3282 9.10086 12.4858C9.32533 12.6433 9.4927 12.8244 9.59902 13.0332C9.70535 13.2419 9.75851 13.486 9.75851 13.7656C9.75851 14.2106 9.62462 14.569 9.35683 14.8407C9.08905 15.1124 8.71493 15.2739 8.23252 15.3231V15.8941C8.23252 15.9946 8.14982 16.0773 8.0494 16.0773H7.82887C7.72845 16.0773 7.64575 15.9946 7.64575 15.8941V15.3231C7.15547 15.2778 6.77151 15.1046 6.49388 14.7994C6.24578 14.5276 6.10795 14.1693 6.08235 13.7262C6.07644 13.6357 6.15324 13.5609 6.24381 13.5609H6.65534C6.73803 13.5609 6.80892 13.6219 6.81483 13.7046C6.83649 14.0019 6.931 14.2362 7.09837 14.4075C7.29133 14.6044 7.56305 14.7049 7.91748 14.7049C8.26206 14.7049 8.53378 14.6222 8.73265 14.4548C8.92759 14.2835 9.02604 14.057 9.02604 13.7696Z" fill="white"/>
<path d="M8.23128 15.4864L7.64648 15.319L7.71343 9.44741V9.24854L8.30217 9.43165L8.23128 15.3151V15.4864Z" fill="white"/>
<path opacity="0.5" d="M14.2637 12.3009C14.2637 13.267 14.6475 14.1935 15.3306 14.8767C16.0137 15.5598 16.9403 15.9436 17.9064 15.9436C18.8725 15.9436 19.799 15.5598 20.4821 14.8767C21.1653 14.1935 21.549 13.267 21.549 12.3009C21.549 11.3348 21.1653 10.4083 20.4821 9.72512C19.799 9.04199 18.8725 8.6582 17.9064 8.6582C16.9403 8.6582 16.0137 9.04199 15.3306 9.72512C14.6475 10.4083 14.2637 11.3348 14.2637 12.3009Z" fill="#2E7D32"/>
<path d="M22.1725 7.41578C22.3418 8.47905 23.1845 9.32179 24.2478 9.49112V15.1107C23.1845 15.28 22.3418 16.1228 22.1725 17.1861H5.42988C5.21329 16.1799 4.39418 15.4041 3.37816 15.2426V9.62305C4.48672 9.44781 5.35309 8.54206 5.47123 7.41578H22.1725ZM22.5348 7.02197H5.08924C5.09121 7.06529 5.09318 7.10861 5.09318 7.1539C5.09318 8.31759 4.15002 9.26075 2.98633 9.26075V15.6069C4.10473 15.6069 5.02033 16.4792 5.08924 17.5818H22.5367C22.5367 16.4181 23.4799 15.475 24.6436 15.475V9.12882C23.4779 9.12882 22.5348 8.18566 22.5348 7.02197Z" fill="#2E7D32"/>
<path d="M11.6484 6H15.9823V21H11.6484V6Z" fill="#F7752C"/>
<path d="M11.6484 18.6016H15.9823V20.9998H11.6484V18.6016Z" fill="#CA500C"/>
</svg>
