<svg width="33" height="44" viewBox="0 0 33 44" fill="none" xmlns="http://www.w3.org/2000/svg">
<path d="M23.3728 42.625H10.2759C8.46781 42.625 7 41.1572 7 39.3491V4.65094C7 2.84281 8.46781 1.375 10.2759 1.375H23.3762C25.1844 1.375 26.6522 2.84281 26.6522 4.65094V39.3491C26.6488 41.1572 25.1844 42.625 23.3728 42.625Z" fill="#424242"/>
<path d="M12.2168 35.3792C12.2168 35.9846 12.336 36.584 12.5677 37.1433C12.7993 37.7025 13.1389 38.2107 13.5669 38.6388C13.995 39.0668 14.5032 39.4064 15.0624 39.638C15.6217 39.8697 16.2211 39.9889 16.8265 39.9889C17.4318 39.9889 18.0313 39.8697 18.5905 39.638C19.1498 39.4064 19.658 39.0668 20.086 38.6388C20.5141 38.2107 20.8536 37.7025 21.0853 37.1433C21.3169 36.584 21.4362 35.9846 21.4362 35.3792C21.4362 34.1567 20.9505 32.9842 20.086 32.1197C19.2215 31.2552 18.049 30.7695 16.8265 30.7695C15.6039 30.7695 14.4314 31.2552 13.5669 32.1197C12.7025 32.9842 12.2168 34.1567 12.2168 35.3792Z" fill="#00D600"/>
<path d="M13.6089 35.7812C13.2171 35.6574 13.1105 34.2824 14.0283 33.179C15.3964 31.5324 17.3661 31.5737 17.5758 32.4502C17.868 33.6774 16.3142 33.1927 15.1317 34.1827C14.3927 34.8015 14.2311 35.9771 13.6089 35.7812Z" fill="#6FD86F"/>
<path d="M12.2168 22.7601C12.2168 23.3654 12.336 23.9649 12.5677 24.5241C12.7993 25.0834 13.1389 25.5916 13.5669 26.0196C13.995 26.4477 14.5032 26.7872 15.0624 27.0189C15.6217 27.2505 16.2211 27.3698 16.8265 27.3698C17.4318 27.3698 18.0313 27.2505 18.5905 27.0189C19.1498 26.7872 19.658 26.4477 20.086 26.0196C20.5141 25.5916 20.8536 25.0834 21.0853 24.5241C21.3169 23.9649 21.4362 23.3654 21.4362 22.7601C21.4362 21.5375 20.9505 20.365 20.086 19.5005C19.2215 18.6361 18.049 18.1504 16.8265 18.1504C15.6039 18.1504 14.4314 18.6361 13.5669 19.5005C12.7025 20.365 12.2168 21.5375 12.2168 22.7601Z" fill="#FFCA28"/>
<path d="M13.6089 23.1659C13.2171 23.0422 13.1105 21.6672 14.0283 20.5637C15.3964 18.9172 17.3661 18.9584 17.5758 19.835C17.868 21.0622 16.3142 20.5775 15.1317 21.5675C14.3927 22.1862 14.2311 23.3619 13.6089 23.1659Z" fill="#FFF59D"/>
<path d="M12.2168 10.1409C12.2168 10.7463 12.336 11.3457 12.5677 11.905C12.7993 12.4643 13.1389 12.9724 13.5669 13.4005C13.995 13.8285 14.5032 14.1681 15.0624 14.3997C15.6217 14.6314 16.2211 14.7506 16.8265 14.7506C17.4318 14.7506 18.0313 14.6314 18.5905 14.3997C19.1498 14.1681 19.658 13.8285 20.086 13.4005C20.5141 12.9724 20.8536 12.4643 21.0853 11.905C21.3169 11.3457 21.4362 10.7463 21.4362 10.1409C21.4362 8.91837 20.9505 7.74588 20.086 6.8814C19.2215 6.01691 18.049 5.53125 16.8265 5.53125C15.6039 5.53125 14.4314 6.01691 13.5669 6.8814C12.7025 7.74588 12.2168 8.91837 12.2168 10.1409Z" fill="#FB0000"/>
<path d="M13.6089 10.5468C13.2171 10.423 13.1105 9.04804 14.0283 7.9446C15.3964 6.29804 17.3661 6.33929 17.5758 7.21585C17.868 8.44304 16.3142 7.95835 15.1317 8.94835C14.3927 9.5671 14.2311 10.7427 13.6089 10.5468Z" fill="#FF8155"/>
<path d="M11.8344 7.94771C11.6729 8.26396 11.1848 8.25021 11.2294 7.76896C11.3394 6.59677 12.0063 5.67552 12.5529 5.11177C13.6391 3.97052 15.2341 3.32083 16.8257 3.32427C18.4173 3.3174 20.0123 3.97052 21.1019 5.10833C21.6485 5.67208 22.4254 6.93021 22.4288 7.80677C22.4288 8.18833 21.9957 8.29146 21.8376 7.98208C21.4423 7.21208 20.2185 4.69927 16.8291 4.69927C13.4329 4.69927 12.2263 7.18459 11.8344 7.94771Z" fill="#757575"/>
<path d="M11.8344 33.2133C11.6729 33.5296 11.1848 33.5158 11.2294 33.0346C11.3394 31.8624 12.0063 30.9411 12.5529 30.3774C13.6391 29.2361 15.2341 28.5865 16.8257 28.5899C18.4173 28.583 20.0123 29.2361 21.1019 30.374C21.6485 30.9377 22.4254 32.1958 22.4288 33.0724C22.4288 33.454 21.9957 33.5571 21.8376 33.2477C21.4423 32.4777 20.2185 29.9649 16.8291 29.9649C13.4329 29.9649 12.2263 32.4536 11.8344 33.2133Z" fill="#757575"/>
<path d="M11.8344 20.5805C11.6729 20.8968 11.1848 20.883 11.2294 20.4018C11.3394 19.2296 12.0063 18.3083 12.5529 17.7446C13.6391 16.6033 15.2341 15.9536 16.8257 15.9571C18.4173 15.9502 20.0123 16.6033 21.1019 17.7411C21.6485 18.3049 22.4254 19.563 22.4288 20.4396C22.4288 20.8211 21.9957 20.9243 21.8376 20.6149C21.4423 19.8449 20.2185 17.3321 16.8291 17.3321C13.4398 17.3321 12.2263 19.8174 11.8344 20.5805Z" fill="#757575"/>
</svg>
